{
    "asset" : {
        "generator" : "Khronos glTF Blender I/O v1.4.40",
        "version" : "2.0"
    },
    "extensionsUsed" : [
        "KHR_texture_transform"
    ],
    "extensionsRequired" : [
        "KHR_texture_transform"
    ],
    "scene" : 0,
    "scenes" : [
        {
            "name" : "Scene",
            "nodes" : [
                0
            ]
        }
    ],
    "nodes" : [
        {
            "mesh" : 0,
            "name" : "Carpet"
        }
    ],
    "materials" : [
        {
            "doubleSided" : true,
            "name" : "Carpet.Inst",
            "normalTexture" : {
                "extensions" : {
                    "KHR_texture_transform" : {
                        "offset" : [
                            0,
                            -4
                        ],
                        "scale" : [
                            5,
                            5
                        ]
                    }
                },
                "index" : 0,
                "texCoord" : 0
            },
            "pbrMetallicRoughness" : {
                "baseColorTexture" : {
                    "index" : 1,
                    "texCoord" : 1
                },
                "metallicFactor" : 0,
                "roughnessFactor" : 0.800000011920929
            }
        }
    ],
    "meshes" : [
        {
            "name" : "Carpet",
            "primitives" : [
                {
                    "attributes" : {
                        "POSITION" : 0,
                        "NORMAL" : 1,
                        "TEXCOORD_0" : 2,
                        "TEXCOORD_1" : 3
                    },
                    "indices" : 4,
                    "material" : 0
                }
            ]
        }
    ],
    "textures" : [
        {
            "sampler" : 0,
            "source" : 0
        },
        {
            "sampler" : 0,
            "source" : 1
        }
    ],
    "images" : [
        {
            "bufferView" : 5,
            "mimeType" : "image/png",
            "name" : "Carpet_N"
        },
        {
            "bufferView" : 6,
            "mimeType" : "image/png",
            "name" : "Carpet_baked"
        }
    ],
    "accessors" : [
        {
            "bufferView" : 0,
            "componentType" : 5126,
            "count" : 489,
            "max" : [
                0.6576012969017029,
                0.00861768051981926,
                0.9824853539466858
            ],
            "min" : [
                -0.6562853455543518,
                -0.010199527256190777,
                -0.9828864336013794
            ],
            "type" : "VEC3"
        },
        {
            "bufferView" : 1,
            "componentType" : 5126,
            "count" : 489,
            "type" : "VEC3"
        },
        {
            "bufferView" : 2,
            "componentType" : 5126,
            "count" : 489,
            "type" : "VEC2"
        },
        {
            "bufferView" : 3,
            "componentType" : 5126,
            "count" : 489,
            "type" : "VEC2"
        },
        {
            "bufferView" : 4,
            "componentType" : 5123,
            "count" : 2160,
            "type" : "SCALAR"
        }
    ],
    "bufferViews" : [
        {
            "buffer" : 0,
            "byteLength" : 5868,
            "byteOffset" : 0
        },
        {
            "buffer" : 0,
            "byteLength" : 5868,
            "byteOffset" : 5868
        },
        {
            "buffer" : 0,
            "byteLength" : 3912,
            "byteOffset" : 11736
        },
        {
            "buffer" : 0,
            "byteLength" : 3912,
            "byteOffset" : 15648
        },
        {
            "buffer" : 0,
            "byteLength" : 4320,
            "byteOffset" : 19560
        },
        {
            "buffer" : 0,
            "byteLength" : 2541877,
            "byteOffset" : 23880
        },
        {
            "buffer" : 0,
            "byteLength" : 28338,
            "byteOffset" : 2565760
        }
    ],
    "samplers" : [
        {
            "magFilter" : 9729,
            "minFilter" : 9986
        }
    ],
    "buffers" : [
        {
            "byteLength" : 2594100,
            "uri" : "data:application/octet-stream;base64,"
        }
    ]
}
