{
    "asset" : {
        "generator" : "Khronos glTF Blender I/O v1.4.40",
        "version" : "2.0"
    },
    "scene" : 0,
    "scenes" : [
        {
            "name" : "Scene",
            "nodes" : [
                0
            ]
        }
    ],
    "nodes" : [
        {
            "mesh" : 0,
            "name" : "Chair"
        }
    ],
    "materials" : [
        {
            "doubleSided" : true,
            "name" : "Glides.001",
            "pbrMetallicRoughness" : {}
        },
        {
            "doubleSided" : true,
            "name" : "Legs.001",
            "pbrMetallicRoughness" : {
                "baseColorFactor" : [
                    0.5840784907341003,
                    0.5840784907341003,
                    0.5840784907341003,
                    1
                ],
                "baseColorTexture" : {
                    "index" : 0,
                    "texCoord" : 1
                },
                "metallicFactor" : 0,
                "roughnessFactor" : 0.4254545569419861
            }
        },
        {
            "doubleSided" : true,
            "name" : "Seat.001",
            "pbrMetallicRoughness" : {
                "baseColorFactor" : [
                    0.12313832342624664,
                    0.16493520140647888,
                    0.16493520140647888,
                    1
                ],
                "baseColorTexture" : {
                    "index" : 1,
                    "texCoord" : 1
                },
                "metallicFactor" : 0,
                "roughnessFactor" : 0.8323023915290833
            }
        }
    ],
    "meshes" : [
        {
            "name" : "Glides_Front",
            "primitives" : [
                {
                    "attributes" : {
                        "POSITION" : 0,
                        "NORMAL" : 1,
                        "TEXCOORD_0" : 2
                    },
                    "indices" : 3,
                    "material" : 0
                },
                {
                    "attributes" : {
                        "POSITION" : 4,
                        "NORMAL" : 5,
                        "TEXCOORD_0" : 6
                    },
                    "indices" : 7,
                    "material" : 1
                },
                {
                    "attributes" : {
                        "POSITION" : 8,
                        "NORMAL" : 9,
                        "TEXCOORD_0" : 10
                    },
                    "indices" : 11,
                    "material" : 2
                }
            ]
        }
    ],
    "textures" : [
        {
            "sampler" : 0,
            "source" : 0
        },
        {
            "sampler" : 0,
            "source" : 0
        }
    ],
    "images" : [
        {
            "bufferView" : 8,
            "mimeType" : "image/png",
            "name" : "Chair_baked"
        }
    ],
    "accessors" : [
        {
            "bufferView" : 0,
            "componentType" : 5126,
            "count" : 5484,
            "max" : [
                0.19078710675239563,
                -0.2865213453769684,
                0.24893471598625183
            ],
            "min" : [
                -0.19060227274894714,
                -0.3020128309726715,
                -0.2834368050098419
            ],
            "type" : "VEC3"
        },
        {
            "bufferView" : 1,
            "componentType" : 5126,
            "count" : 5484,
            "type" : "VEC3"
        },
        {
            "bufferView" : 2,
            "componentType" : 5126,
            "count" : 5484,
            "type" : "VEC2"
        },
        {
            "bufferView" : 3,
            "componentType" : 5123,
            "count" : 8352,
            "type" : "SCALAR"
        },
        {
            "bufferView" : 4,
            "componentType" : 5126,
            "count" : 3392,
            "max" : [
                0.19078698754310608,
                0.14012391865253448,
                0.2448858916759491
            ],
            "min" : [
                -0.1906094253063202,
                -0.2975744307041168,
                -0.2832823097705841
            ],
            "type" : "VEC3"
        },
        {
            "bufferView" : 5,
            "componentType" : 5126,
            "count" : 3392,
            "type" : "VEC3"
        },
        {
            "bufferView" : 6,
            "componentType" : 5126,
            "count" : 3392,
            "type" : "VEC2"
        },
        {
            "bufferView" : 7,
            "componentType" : 5123,
            "count" : 5088,
            "type" : "SCALAR"
        },
        {
            "bufferView" : 9,
            "componentType" : 5126,
            "count" : 10624,
            "max" : [
                0.19077196717262268,
                0.5119519829750061,
                0.23172470927238464
            ],
            "min" : [
                -0.19066736102104187,
                0.07378251850605011,
                -0.2616720497608185
            ],
            "type" : "VEC3"
        },
        {
            "bufferView" : 10,
            "componentType" : 5126,
            "count" : 10624,
            "type" : "VEC3"
        },
        {
            "bufferView" : 11,
            "componentType" : 5126,
            "count" : 10624,
            "type" : "VEC2"
        },
        {
            "bufferView" : 12,
            "componentType" : 5123,
            "count" : 15936,
            "type" : "SCALAR"
        }
    ],
    "bufferViews" : [
        {
            "buffer" : 0,
            "byteLength" : 65808,
            "byteOffset" : 0
        },
        {
            "buffer" : 0,
            "byteLength" : 65808,
            "byteOffset" : 65808
        },
        {
            "buffer" : 0,
            "byteLength" : 43872,
            "byteOffset" : 131616
        },
        {
            "buffer" : 0,
            "byteLength" : 16704,
            "byteOffset" : 175488
        },
        {
            "buffer" : 0,
            "byteLength" : 40704,
            "byteOffset" : 192192
        },
        {
            "buffer" : 0,
            "byteLength" : 40704,
            "byteOffset" : 232896
        },
        {
            "buffer" : 0,
            "byteLength" : 27136,
            "byteOffset" : 273600
        },
        {
            "buffer" : 0,
            "byteLength" : 10176,
            "byteOffset" : 300736
        },
        {
            "buffer" : 0,
            "byteLength" : 65134,
            "byteOffset" : 310912
        },
        {
            "buffer" : 0,
            "byteLength" : 127488,
            "byteOffset" : 376048
        },
        {
            "buffer" : 0,
            "byteLength" : 127488,
            "byteOffset" : 503536
        },
        {
            "buffer" : 0,
            "byteLength" : 84992,
            "byteOffset" : 631024
        },
        {
            "buffer" : 0,
            "byteLength" : 31872,
            "byteOffset" : 716016
        }
    ],
    "samplers" : [
        {
            "magFilter" : 9729,
            "minFilter" : 9986
        }
    ],
    "buffers" : [
        {
            "byteLength" : 747888,
            "uri" : "data:application/octet-stream;base64,"
        }
    ]
}
