{
    "asset" : {
        "generator" : "Khronos glTF Blender I/O v1.4.40",
        "version" : "2.0"
    },
    "scene" : 0,
    "scenes" : [
        {
            "name" : "Scene",
            "nodes" : [
                0
            ]
        }
    ],
    "nodes" : [
        {
            "mesh" : 0,
            "name" : "Chair.004",
            "rotation" : [
                0,
                0.7635385394096375,
                0,
                0.6457622647285461
            ]
        }
    ],
    "materials" : [
        {
            "doubleSided" : true,
            "name" : "Glides",
            "pbrMetallicRoughness" : {}
        },
        {
            "doubleSided" : true,
            "name" : "Legs",
            "pbrMetallicRoughness" : {
                "baseColorFactor" : [
                    0.5840784907341003,
                    0.5840784907341003,
                    0.5840784907341003,
                    1
                ],
                "baseColorTexture" : {
                    "index" : 0,
                    "texCoord" : 1
                },
                "metallicFactor" : 0,
                "roughnessFactor" : 0.4254545569419861
            }
        },
        {
            "doubleSided" : true,
            "name" : "Seat",
            "pbrMetallicRoughness" : {
                "baseColorFactor" : [
                    0.12313832342624664,
                    0.16493520140647888,
                    0.16493520140647888,
                    1
                ],
                "baseColorTexture" : {
                    "index" : 1,
                    "texCoord" : 1
                },
                "metallicFactor" : 0,
                "roughnessFactor" : 0.8323023915290833
            }
        }
    ],
    "meshes" : [
        {
            "name" : "Glides_Front.004",
            "primitives" : [
                {
                    "attributes" : {
                        "POSITION" : 0,
                        "NORMAL" : 1,
                        "TEXCOORD_0" : 2
                    },
                    "indices" : 3,
                    "material" : 0
                },
                {
                    "attributes" : {
                        "POSITION" : 4,
                        "NORMAL" : 5,
                        "TEXCOORD_0" : 6
                    },
                    "indices" : 7,
                    "material" : 1
                },
                {
                    "attributes" : {
                        "POSITION" : 8,
                        "NORMAL" : 9,
                        "TEXCOORD_0" : 10
                    },
                    "indices" : 11,
                    "material" : 2
                }
            ]
        }
    ],
    "textures" : [
        {
            "sampler" : 0,
            "source" : 0
        },
        {
            "sampler" : 0,
            "source" : 0
        }
    ],
    "images" : [
        {
            "bufferView" : 8,
            "mimeType" : "image/png",
            "name" : "Chair"
        }
    ],
    "accessors" : [
        {
            "bufferView" : 0,
            "componentType" : 5126,
            "count" : 5445,
            "max" : [
                0.19060227274894714,
                -0.2865217328071594,
                0.2834368050098419
            ],
            "min" : [
                -0.19078698754310608,
                -0.30201321840286255,
                -0.24893471598625183
            ],
            "type" : "VEC3"
        },
        {
            "bufferView" : 1,
            "componentType" : 5126,
            "count" : 5445,
            "type" : "VEC3"
        },
        {
            "bufferView" : 2,
            "componentType" : 5126,
            "count" : 5445,
            "type" : "VEC2"
        },
        {
            "bufferView" : 3,
            "componentType" : 5123,
            "count" : 8352,
            "type" : "SCALAR"
        },
        {
            "bufferView" : 4,
            "componentType" : 5126,
            "count" : 3392,
            "max" : [
                0.1906094253063202,
                0.14012354612350464,
                0.2832823097705841
            ],
            "min" : [
                -0.19078686833381653,
                -0.29757481813430786,
                -0.2448858916759491
            ],
            "type" : "VEC3"
        },
        {
            "bufferView" : 5,
            "componentType" : 5126,
            "count" : 3392,
            "type" : "VEC3"
        },
        {
            "bufferView" : 6,
            "componentType" : 5126,
            "count" : 3392,
            "type" : "VEC2"
        },
        {
            "bufferView" : 7,
            "componentType" : 5123,
            "count" : 5088,
            "type" : "SCALAR"
        },
        {
            "bufferView" : 9,
            "componentType" : 5126,
            "count" : 10624,
            "max" : [
                0.19066736102104187,
                0.5119516253471375,
                0.2616720497608185
            ],
            "min" : [
                -0.19077196717262268,
                0.07378213852643967,
                -0.23172447085380554
            ],
            "type" : "VEC3"
        },
        {
            "bufferView" : 10,
            "componentType" : 5126,
            "count" : 10624,
            "type" : "VEC3"
        },
        {
            "bufferView" : 11,
            "componentType" : 5126,
            "count" : 10624,
            "type" : "VEC2"
        },
        {
            "bufferView" : 12,
            "componentType" : 5123,
            "count" : 15936,
            "type" : "SCALAR"
        }
    ],
    "bufferViews" : [
        {
            "buffer" : 0,
            "byteLength" : 65340,
            "byteOffset" : 0
        },
        {
            "buffer" : 0,
            "byteLength" : 65340,
            "byteOffset" : 65340
        },
        {
            "buffer" : 0,
            "byteLength" : 43560,
            "byteOffset" : 130680
        },
        {
            "buffer" : 0,
            "byteLength" : 16704,
            "byteOffset" : 174240
        },
        {
            "buffer" : 0,
            "byteLength" : 40704,
            "byteOffset" : 190944
        },
        {
            "buffer" : 0,
            "byteLength" : 40704,
            "byteOffset" : 231648
        },
        {
            "buffer" : 0,
            "byteLength" : 27136,
            "byteOffset" : 272352
        },
        {
            "buffer" : 0,
            "byteLength" : 10176,
            "byteOffset" : 299488
        },
        {
            "buffer" : 0,
            "byteLength" : 72188,
            "byteOffset" : 309664
        },
        {
            "buffer" : 0,
            "byteLength" : 127488,
            "byteOffset" : 381852
        },
        {
            "buffer" : 0,
            "byteLength" : 127488,
            "byteOffset" : 509340
        },
        {
            "buffer" : 0,
            "byteLength" : 84992,
            "byteOffset" : 636828
        },
        {
            "buffer" : 0,
            "byteLength" : 31872,
            "byteOffset" : 721820
        }
    ],
    "samplers" : [
        {
            "magFilter" : 9729,
            "minFilter" : 9986
        }
    ],
    "buffers" : [
        {
            "byteLength" : 753692,
            "uri" : "data:application/octet-stream;base64,"
        }
    ]
}
