{
    "asset" : {
        "generator" : "Khronos glTF Blender I/O v1.4.40",
        "version" : "2.0"
    },
    "scene" : 0,
    "scenes" : [
        {
            "name" : "Scene",
            "nodes" : [
                0
            ]
        }
    ],
    "nodes" : [
        {
            "mesh" : 0,
            "name" : "Chair.003"
        }
    ],
    "materials" : [
        {
            "doubleSided" : true,
            "name" : "Glides.004",
            "pbrMetallicRoughness" : {}
        },
        {
            "doubleSided" : true,
            "name" : "Legs.004",
            "pbrMetallicRoughness" : {
                "baseColorFactor" : [
                    0.5840784907341003,
                    0.5840784907341003,
                    0.5840784907341003,
                    1
                ],
                "baseColorTexture" : {
                    "index" : 0,
                    "texCoord" : 1
                },
                "metallicFactor" : 0,
                "roughnessFactor" : 0.4254545569419861
            }
        },
        {
            "doubleSided" : true,
            "name" : "Seat.004",
            "pbrMetallicRoughness" : {
                "baseColorFactor" : [
                    0.12313832342624664,
                    0.16493520140647888,
                    0.16493520140647888,
                    1
                ],
                "baseColorTexture" : {
                    "index" : 1,
                    "texCoord" : 1
                },
                "metallicFactor" : 0,
                "roughnessFactor" : 0.8323023915290833
            }
        }
    ],
    "meshes" : [
        {
            "name" : "Glides_Front.003",
            "primitives" : [
                {
                    "attributes" : {
                        "POSITION" : 0,
                        "NORMAL" : 1,
                        "TEXCOORD_0" : 2
                    },
                    "indices" : 3,
                    "material" : 0
                },
                {
                    "attributes" : {
                        "POSITION" : 4,
                        "NORMAL" : 5,
                        "TEXCOORD_0" : 6
                    },
                    "indices" : 7,
                    "material" : 1
                },
                {
                    "attributes" : {
                        "POSITION" : 8,
                        "NORMAL" : 9,
                        "TEXCOORD_0" : 10
                    },
                    "indices" : 11,
                    "material" : 2
                }
            ]
        }
    ],
    "textures" : [
        {
            "sampler" : 0,
            "source" : 0
        },
        {
            "sampler" : 0,
            "source" : 0
        }
    ],
    "images" : [
        {
            "bufferView" : 8,
            "mimeType" : "image/png",
            "name" : "Chair"
        }
    ],
    "accessors" : [
        {
            "bufferView" : 0,
            "componentType" : 5126,
            "count" : 5437,
            "max" : [
                0.19060225784778595,
                -0.2865213453769684,
                0.2834368646144867
            ],
            "min" : [
                -0.19078712165355682,
                -0.3020128309726715,
                -0.24893465638160706
            ],
            "type" : "VEC3"
        },
        {
            "bufferView" : 1,
            "componentType" : 5126,
            "count" : 5437,
            "type" : "VEC3"
        },
        {
            "bufferView" : 2,
            "componentType" : 5126,
            "count" : 5437,
            "type" : "VEC2"
        },
        {
            "bufferView" : 3,
            "componentType" : 5123,
            "count" : 8352,
            "type" : "SCALAR"
        },
        {
            "bufferView" : 4,
            "componentType" : 5126,
            "count" : 3392,
            "max" : [
                0.190609410405159,
                0.14012391865253448,
                0.2832823693752289
            ],
            "min" : [
                -0.19078688323497772,
                -0.2975744307041168,
                -0.24488583207130432
            ],
            "type" : "VEC3"
        },
        {
            "bufferView" : 5,
            "componentType" : 5126,
            "count" : 3392,
            "type" : "VEC3"
        },
        {
            "bufferView" : 6,
            "componentType" : 5126,
            "count" : 3392,
            "type" : "VEC2"
        },
        {
            "bufferView" : 7,
            "componentType" : 5123,
            "count" : 5088,
            "type" : "SCALAR"
        },
        {
            "bufferView" : 9,
            "componentType" : 5126,
            "count" : 10624,
            "max" : [
                0.19066734611988068,
                0.5119519829750061,
                0.26167210936546326
            ],
            "min" : [
                -0.19077210128307343,
                0.07378251850605011,
                -0.23172441124916077
            ],
            "type" : "VEC3"
        },
        {
            "bufferView" : 10,
            "componentType" : 5126,
            "count" : 10624,
            "type" : "VEC3"
        },
        {
            "bufferView" : 11,
            "componentType" : 5126,
            "count" : 10624,
            "type" : "VEC2"
        },
        {
            "bufferView" : 12,
            "componentType" : 5123,
            "count" : 15936,
            "type" : "SCALAR"
        }
    ],
    "bufferViews" : [
        {
            "buffer" : 0,
            "byteLength" : 65244,
            "byteOffset" : 0
        },
        {
            "buffer" : 0,
            "byteLength" : 65244,
            "byteOffset" : 65244
        },
        {
            "buffer" : 0,
            "byteLength" : 43496,
            "byteOffset" : 130488
        },
        {
            "buffer" : 0,
            "byteLength" : 16704,
            "byteOffset" : 173984
        },
        {
            "buffer" : 0,
            "byteLength" : 40704,
            "byteOffset" : 190688
        },
        {
            "buffer" : 0,
            "byteLength" : 40704,
            "byteOffset" : 231392
        },
        {
            "buffer" : 0,
            "byteLength" : 27136,
            "byteOffset" : 272096
        },
        {
            "buffer" : 0,
            "byteLength" : 10176,
            "byteOffset" : 299232
        },
        {
            "buffer" : 0,
            "byteLength" : 63347,
            "byteOffset" : 309408
        },
        {
            "buffer" : 0,
            "byteLength" : 127488,
            "byteOffset" : 372756
        },
        {
            "buffer" : 0,
            "byteLength" : 127488,
            "byteOffset" : 500244
        },
        {
            "buffer" : 0,
            "byteLength" : 84992,
            "byteOffset" : 627732
        },
        {
            "buffer" : 0,
            "byteLength" : 31872,
            "byteOffset" : 712724
        }
    ],
    "samplers" : [
        {
            "magFilter" : 9729,
            "minFilter" : 9986
        }
    ],
    "buffers" : [
        {
            "byteLength" : 744596,
            "uri" : "data:application/octet-stream;base64,"
        }
    ]
}
