{
    "asset" : {
        "generator" : "Khronos glTF Blender I/O v1.4.40",
        "version" : "2.0"
    },
    "scene" : 0,
    "scenes" : [
        {
            "name" : "Scene",
            "nodes" : [
                0
            ]
        }
    ],
    "nodes" : [
        {
            "mesh" : 0,
            "name" : "Chocofur.free.Beds.002"
        }
    ],
    "materials" : [
        {
            "doubleSided" : true,
            "name" : "Material",
            "pbrMetallicRoughness" : {
                "baseColorFactor" : [
                    0.37574970722198486,
                    0.37574970722198486,
                    0.37574970722198486,
                    1
                ],
                "baseColorTexture" : {
                    "index" : 0,
                    "texCoord" : 1
                },
                "metallicFactor" : 0,
                "roughnessFactor" : 0.5
            }
        }
    ],
    "meshes" : [
        {
            "name" : "Chocofur_free_Beds_01.004",
            "primitives" : [
                {
                    "attributes" : {
                        "POSITION" : 0,
                        "NORMAL" : 1,
                        "TEXCOORD_0" : 2,
                        "TEXCOORD_1" : 3
                    },
                    "indices" : 4,
                    "material" : 0
                }
            ]
        }
    ],
    "textures" : [
        {
            "sampler" : 0,
            "source" : 0
        }
    ],
    "images" : [
        {
            "bufferView" : 5,
            "mimeType" : "image/png",
            "name" : "Chocofur.free.Beds"
        }
    ],
    "accessors" : [
        {
            "bufferView" : 0,
            "componentType" : 5126,
            "count" : 23760,
            "max" : [
                1.1175193786621094,
                0.5512187480926514,
                1.0611671209335327
            ],
            "min" : [
                -1.0685081481933594,
                -0.40070655941963196,
                -0.9704262614250183
            ],
            "type" : "VEC3"
        },
        {
            "bufferView" : 1,
            "componentType" : 5126,
            "count" : 23760,
            "type" : "VEC3"
        },
        {
            "bufferView" : 2,
            "componentType" : 5126,
            "count" : 23760,
            "type" : "VEC2"
        },
        {
            "bufferView" : 3,
            "componentType" : 5126,
            "count" : 23760,
            "type" : "VEC2"
        },
        {
            "bufferView" : 4,
            "componentType" : 5123,
            "count" : 135195,
            "type" : "SCALAR"
        }
    ],
    "bufferViews" : [
        {
            "buffer" : 0,
            "byteLength" : 285120,
            "byteOffset" : 0
        },
        {
            "buffer" : 0,
            "byteLength" : 285120,
            "byteOffset" : 285120
        },
        {
            "buffer" : 0,
            "byteLength" : 190080,
            "byteOffset" : 570240
        },
        {
            "buffer" : 0,
            "byteLength" : 190080,
            "byteOffset" : 760320
        },
        {
            "buffer" : 0,
            "byteLength" : 270390,
            "byteOffset" : 950400
        },
        {
            "buffer" : 0,
            "byteLength" : 1665570,
            "byteOffset" : 1220792
        }
    ],
    "samplers" : [
        {
            "magFilter" : 9729,
            "minFilter" : 9986
        }
    ],
    "buffers" : [
        {
            "byteLength" : 2886364,
            "uri" : "data:application/octet-stream;base64,"
        }
    ]
}
