{
    "asset" : {
        "generator" : "Khronos glTF Blender I/O v1.4.40",
        "version" : "2.0"
    },
    "scene" : 0,
    "scenes" : [
        {
            "name" : "Scene",
            "nodes" : [
                0
            ]
        }
    ],
    "nodes" : [
        {
            "mesh" : 0,
            "name" : "Chocofur.free.Beds.01.003"
        }
    ],
    "materials" : [
        {
            "doubleSided" : true,
            "name" : "Material.008",
            "pbrMetallicRoughness" : {
                "baseColorFactor" : [
                    0.39311516284942627,
                    0.39311516284942627,
                    0.39311516284942627,
                    1
                ],
                "baseColorTexture" : {
                    "index" : 0,
                    "texCoord" : 1
                },
                "metallicFactor" : 0,
                "roughnessFactor" : 0.5
            }
        }
    ],
    "meshes" : [
        {
            "name" : "Chocofur_free_Beds_01.006",
            "primitives" : [
                {
                    "attributes" : {
                        "POSITION" : 0,
                        "NORMAL" : 1,
                        "TEXCOORD_0" : 2,
                        "TEXCOORD_1" : 3
                    },
                    "indices" : 4,
                    "material" : 0
                }
            ]
        }
    ],
    "textures" : [
        {
            "sampler" : 0,
            "source" : 0
        }
    ],
    "images" : [
        {
            "bufferView" : 5,
            "mimeType" : "image/png",
            "name" : "Chocofur.free.Beds.01"
        }
    ],
    "accessors" : [
        {
            "bufferView" : 0,
            "componentType" : 5126,
            "count" : 27734,
            "max" : [
                0.3702128827571869,
                0.21806132793426514,
                0.9266523718833923
            ],
            "min" : [
                -0.34317365288734436,
                -0.16646969318389893,
                -1.1279054880142212
            ],
            "type" : "VEC3"
        },
        {
            "bufferView" : 1,
            "componentType" : 5126,
            "count" : 27734,
            "type" : "VEC3"
        },
        {
            "bufferView" : 2,
            "componentType" : 5126,
            "count" : 27734,
            "type" : "VEC2"
        },
        {
            "bufferView" : 3,
            "componentType" : 5126,
            "count" : 27734,
            "type" : "VEC2"
        },
        {
            "bufferView" : 4,
            "componentType" : 5123,
            "count" : 161304,
            "type" : "SCALAR"
        }
    ],
    "bufferViews" : [
        {
            "buffer" : 0,
            "byteLength" : 332808,
            "byteOffset" : 0
        },
        {
            "buffer" : 0,
            "byteLength" : 332808,
            "byteOffset" : 332808
        },
        {
            "buffer" : 0,
            "byteLength" : 221872,
            "byteOffset" : 665616
        },
        {
            "buffer" : 0,
            "byteLength" : 221872,
            "byteOffset" : 887488
        },
        {
            "buffer" : 0,
            "byteLength" : 322608,
            "byteOffset" : 1109360
        },
        {
            "buffer" : 0,
            "byteLength" : 47914,
            "byteOffset" : 1431968
        }
    ],
    "samplers" : [
        {
            "magFilter" : 9729,
            "minFilter" : 9986
        }
    ],
    "buffers" : [
        {
            "byteLength" : 1479884,
            "uri" : "data:application/octet-stream;base64,"
        }
    ]
}
