{
    "asset" : {
        "generator" : "Khronos glTF Blender I/O v1.4.40",
        "version" : "2.0"
    },
    "scene" : 0,
    "scenes" : [
        {
            "name" : "Scene",
            "nodes" : [
                0
            ]
        }
    ],
    "nodes" : [
        {
            "mesh" : 0,
            "name" : "Circle.001"
        }
    ],
    "materials" : [
        {
            "doubleSided" : true,
            "name" : "Chrome.002",
            "pbrMetallicRoughness" : {
                "baseColorFactor" : [
                    0.07323545962572098,
                    0.07323545962572098,
                    0.07323545962572098,
                    1
                ],
                "metallicFactor" : 0.30000001192092896,
                "roughnessFactor" : 0
            }
        }
    ],
    "meshes" : [
        {
            "name" : "Circle.002",
            "primitives" : [
                {
                    "attributes" : {
                        "POSITION" : 0,
                        "NORMAL" : 1
                    },
                    "indices" : 2,
                    "material" : 0
                }
            ]
        }
    ],
    "accessors" : [
        {
            "bufferView" : 0,
            "componentType" : 5126,
            "count" : 7355,
            "max" : [
                0.08933010697364807,
                0.18801350891590118,
                0.06259798258543015
            ],
            "min" : [
                -0.13517038524150848,
                -0.18396876752376556,
                -0.030558515340089798
            ],
            "type" : "VEC3"
        },
        {
            "bufferView" : 1,
            "componentType" : 5126,
            "count" : 7355,
            "type" : "VEC3"
        },
        {
            "bufferView" : 2,
            "componentType" : 5123,
            "count" : 43824,
            "type" : "SCALAR"
        }
    ],
    "bufferViews" : [
        {
            "buffer" : 0,
            "byteLength" : 88260,
            "byteOffset" : 0
        },
        {
            "buffer" : 0,
            "byteLength" : 88260,
            "byteOffset" : 88260
        },
        {
            "buffer" : 0,
            "byteLength" : 87648,
            "byteOffset" : 176520
        }
    ],
    "buffers" : [
        {
            "byteLength" : 264168,
            "uri" : "data:application/octet-stream;base64,"
        }
    ]
}
