{
    "asset" : {
        "generator" : "Khronos glTF Blender I/O v1.4.40",
        "version" : "2.0"
    },
    "scene" : 0,
    "scenes" : [
        {
            "name" : "Scene",
            "nodes" : [
                0
            ]
        }
    ],
    "nodes" : [
        {
            "mesh" : 0,
            "name" : "Circle.021"
        }
    ],
    "materials" : [
        {
            "doubleSided" : true,
            "name" : "Chrome.007",
            "pbrMetallicRoughness" : {
                "baseColorFactor" : [
                    0.6146150231361389,
                    0.6146150231361389,
                    0.6146150231361389,
                    1
                ],
                "roughnessFactor" : 0.14545460045337677
            }
        },
        {
            "doubleSided" : true,
            "name" : "Plast",
            "pbrMetallicRoughness" : {}
        },
        {
            "doubleSided" : true,
            "name" : "Plast_Trysky",
            "pbrMetallicRoughness" : {
                "baseColorFactor" : [
                    0.800000011920929,
                    0.800000011920929,
                    0.800000011920929,
                    1
                ],
                "metallicFactor" : 0.75,
                "roughnessFactor" : 0.5
            }
        }
    ],
    "meshes" : [
        {
            "name" : "Circle.017",
            "primitives" : [
                {
                    "attributes" : {
                        "POSITION" : 0,
                        "NORMAL" : 1
                    },
                    "indices" : 2,
                    "material" : 0
                },
                {
                    "attributes" : {
                        "POSITION" : 3,
                        "NORMAL" : 4
                    },
                    "indices" : 5,
                    "material" : 1
                },
                {
                    "attributes" : {
                        "POSITION" : 6,
                        "NORMAL" : 7
                    },
                    "indices" : 8,
                    "material" : 2
                }
            ]
        }
    ],
    "accessors" : [
        {
            "bufferView" : 0,
            "componentType" : 5126,
            "count" : 5632,
            "max" : [
                0.03039238043129444,
                0.07032432407140732,
                0.04877056926488876
            ],
            "min" : [
                -0.07367599755525589,
                -0.14647406339645386,
                -0.04928024858236313
            ],
            "type" : "VEC3"
        },
        {
            "bufferView" : 1,
            "componentType" : 5126,
            "count" : 5632,
            "type" : "VEC3"
        },
        {
            "bufferView" : 2,
            "componentType" : 5123,
            "count" : 8448,
            "type" : "SCALAR"
        },
        {
            "bufferView" : 3,
            "componentType" : 5126,
            "count" : 3072,
            "max" : [
                0.028578748926520348,
                0.046159129589796066,
                0.04129163175821304
            ],
            "min" : [
                -0.02252969518303871,
                -0.026101719588041306,
                -0.04102424159646034
            ],
            "type" : "VEC3"
        },
        {
            "bufferView" : 4,
            "componentType" : 5126,
            "count" : 3072,
            "type" : "VEC3"
        },
        {
            "bufferView" : 5,
            "componentType" : 5123,
            "count" : 4608,
            "type" : "SCALAR"
        },
        {
            "bufferView" : 6,
            "componentType" : 5126,
            "count" : 14918,
            "max" : [
                0.02769780345261097,
                0.03735191375017166,
                0.03609500825405121
            ],
            "min" : [
                -0.037429120391607285,
                -0.04825149103999138,
                -0.035732369869947433
            ],
            "type" : "VEC3"
        },
        {
            "bufferView" : 7,
            "componentType" : 5126,
            "count" : 14918,
            "type" : "VEC3"
        },
        {
            "bufferView" : 8,
            "componentType" : 5123,
            "count" : 22416,
            "type" : "SCALAR"
        }
    ],
    "bufferViews" : [
        {
            "buffer" : 0,
            "byteLength" : 67584,
            "byteOffset" : 0
        },
        {
            "buffer" : 0,
            "byteLength" : 67584,
            "byteOffset" : 67584
        },
        {
            "buffer" : 0,
            "byteLength" : 16896,
            "byteOffset" : 135168
        },
        {
            "buffer" : 0,
            "byteLength" : 36864,
            "byteOffset" : 152064
        },
        {
            "buffer" : 0,
            "byteLength" : 36864,
            "byteOffset" : 188928
        },
        {
            "buffer" : 0,
            "byteLength" : 9216,
            "byteOffset" : 225792
        },
        {
            "buffer" : 0,
            "byteLength" : 179016,
            "byteOffset" : 235008
        },
        {
            "buffer" : 0,
            "byteLength" : 179016,
            "byteOffset" : 414024
        },
        {
            "buffer" : 0,
            "byteLength" : 44832,
            "byteOffset" : 593040
        }
    ],
    "buffers" : [
        {
            "byteLength" : 637872,
            "uri" : "data:application/octet-stream;base64,"
        }
    ]
}
