{
    "asset" : {
        "generator" : "Khronos glTF Blender I/O v1.4.40",
        "version" : "2.0"
    },
    "scene" : 0,
    "scenes" : [
        {
            "name" : "Scene",
            "nodes" : [
                0
            ]
        }
    ],
    "nodes" : [
        {
            "mesh" : 0,
            "name" : "Circle.019"
        }
    ],
    "materials" : [
        {
            "doubleSided" : true,
            "name" : "Chrome.004",
            "pbrMetallicRoughness" : {
                "baseColorFactor" : [
                    0.532439649105072,
                    0.532439649105072,
                    0.532439649105072,
                    1
                ],
                "roughnessFactor" : 0.1725085973739624
            }
        }
    ],
    "meshes" : [
        {
            "name" : "Circle.011",
            "primitives" : [
                {
                    "attributes" : {
                        "POSITION" : 0,
                        "NORMAL" : 1
                    },
                    "indices" : 2,
                    "material" : 0
                }
            ]
        }
    ],
    "accessors" : [
        {
            "bufferView" : 0,
            "componentType" : 5126,
            "count" : 2890,
            "max" : [
                0.15010911226272583,
                0.04306664317846298,
                0.08483677357435226
            ],
            "min" : [
                -0.15064425766468048,
                -0.04073946177959442,
                -0.11016952246427536
            ],
            "type" : "VEC3"
        },
        {
            "bufferView" : 1,
            "componentType" : 5126,
            "count" : 2890,
            "type" : "VEC3"
        },
        {
            "bufferView" : 2,
            "componentType" : 5123,
            "count" : 8304,
            "type" : "SCALAR"
        }
    ],
    "bufferViews" : [
        {
            "buffer" : 0,
            "byteLength" : 34680,
            "byteOffset" : 0
        },
        {
            "buffer" : 0,
            "byteLength" : 34680,
            "byteOffset" : 34680
        },
        {
            "buffer" : 0,
            "byteLength" : 16608,
            "byteOffset" : 69360
        }
    ],
    "buffers" : [
        {
            "byteLength" : 85968,
            "uri" : "data:application/octet-stream;base64,"
        }
    ]
}
