{
    "asset" : {
        "generator" : "Khronos glTF Blender I/O v1.4.40",
        "version" : "2.0"
    },
    "scene" : 0,
    "scenes" : [
        {
            "name" : "Scene",
            "nodes" : [
                0
            ]
        }
    ],
    "nodes" : [
        {
            "mesh" : 0,
            "name" : "Circle.007",
            "rotation" : [
                0,
                0.7362688183784485,
                0,
                -0.6766891479492188
            ]
        }
    ],
    "materials" : [
        {
            "doubleSided" : true,
            "name" : "Chrome.001",
            "pbrMetallicRoughness" : {
                "baseColorFactor" : [
                    0.6146150231361389,
                    0.6146150231361389,
                    0.6146150231361389,
                    1
                ],
                "roughnessFactor" : 0.14545460045337677
            }
        }
    ],
    "meshes" : [
        {
            "name" : "Circle.001",
            "primitives" : [
                {
                    "attributes" : {
                        "POSITION" : 0,
                        "NORMAL" : 1
                    },
                    "indices" : 2,
                    "material" : 0
                }
            ]
        }
    ],
    "accessors" : [
        {
            "bufferView" : 0,
            "componentType" : 5126,
            "count" : 7355,
            "max" : [
                0.05630453675985336,
                0.18801350891590118,
                0.1364956796169281
            ],
            "min" : [
                -0.032698605209589005,
                -0.18396876752376556,
                -0.08880456537008286
            ],
            "type" : "VEC3"
        },
        {
            "bufferView" : 1,
            "componentType" : 5126,
            "count" : 7355,
            "type" : "VEC3"
        },
        {
            "bufferView" : 2,
            "componentType" : 5123,
            "count" : 43824,
            "type" : "SCALAR"
        }
    ],
    "bufferViews" : [
        {
            "buffer" : 0,
            "byteLength" : 88260,
            "byteOffset" : 0
        },
        {
            "buffer" : 0,
            "byteLength" : 88260,
            "byteOffset" : 88260
        },
        {
            "buffer" : 0,
            "byteLength" : 87648,
            "byteOffset" : 176520
        }
    ],
    "buffers" : [
        {
            "byteLength" : 264168,
            "uri" : "data:application/octet-stream;base64,"
        }
    ]
}
