{
    "asset" : {
        "generator" : "Khronos glTF Blender I/O v1.4.40",
        "version" : "2.0"
    },
    "scene" : 0,
    "scenes" : [
        {
            "name" : "Scene",
            "nodes" : [
                0
            ]
        }
    ],
    "nodes" : [
        {
            "mesh" : 0,
            "name" : "Concrete.Wall.B"
        }
    ],
    "materials" : [
        {
            "doubleSided" : true,
            "name" : "Vegg.Generelt.002",
            "pbrMetallicRoughness" : {
                "baseColorFactor" : [
                    0.5647116899490356,
                    0.5583406686782837,
                    0.5149176120758057,
                    1
                ],
                "baseColorTexture" : {
                    "index" : 0,
                    "texCoord" : 1
                },
                "metallicFactor" : 0,
                "roughnessFactor" : 0.5
            }
        },
        {
            "doubleSided" : true,
            "name" : "Vegg.Soverom.001",
            "pbrMetallicRoughness" : {
                "baseColorFactor" : [
                    0.5394797921180725,
                    0.5271151661872864,
                    0.46207699179649353,
                    1
                ],
                "baseColorTexture" : {
                    "index" : 1,
                    "texCoord" : 1
                },
                "metallicFactor" : 0,
                "roughnessFactor" : 0.5
            }
        },
        {
            "doubleSided" : true,
            "name" : "White.001",
            "pbrMetallicRoughness" : {
                "baseColorTexture" : {
                    "index" : 2,
                    "texCoord" : 1
                },
                "metallicFactor" : 0
            }
        }
    ],
    "meshes" : [
        {
            "name" : "Cube.001",
            "primitives" : [
                {
                    "attributes" : {
                        "POSITION" : 0,
                        "NORMAL" : 1,
                        "TEXCOORD_0" : 2,
                        "TEXCOORD_1" : 3
                    },
                    "indices" : 4,
                    "material" : 0
                },
                {
                    "attributes" : {
                        "POSITION" : 5,
                        "NORMAL" : 6,
                        "TEXCOORD_0" : 7,
                        "TEXCOORD_1" : 8
                    },
                    "indices" : 9,
                    "material" : 1
                },
                {
                    "attributes" : {
                        "POSITION" : 10,
                        "NORMAL" : 11,
                        "TEXCOORD_0" : 12,
                        "TEXCOORD_1" : 13
                    },
                    "indices" : 14,
                    "material" : 2
                }
            ]
        }
    ],
    "textures" : [
        {
            "sampler" : 0,
            "source" : 0
        },
        {
            "sampler" : 0,
            "source" : 0
        },
        {
            "sampler" : 0,
            "source" : 0
        }
    ],
    "images" : [
        {
            "bufferView" : 5,
            "mimeType" : "image/png",
            "name" : "Concrete.Wall"
        }
    ],
    "accessors" : [
        {
            "bufferView" : 0,
            "componentType" : 5126,
            "count" : 42,
            "max" : [
                0.09999847412109375,
                1.3300002813339233,
                6.863315582275391
            ],
            "min" : [
                -0.09999847412109375,
                -1.1699997186660767,
                -6.434288024902344
            ],
            "type" : "VEC3"
        },
        {
            "bufferView" : 1,
            "componentType" : 5126,
            "count" : 42,
            "type" : "VEC3"
        },
        {
            "bufferView" : 2,
            "componentType" : 5126,
            "count" : 42,
            "type" : "VEC2"
        },
        {
            "bufferView" : 3,
            "componentType" : 5126,
            "count" : 42,
            "type" : "VEC2"
        },
        {
            "bufferView" : 4,
            "componentType" : 5123,
            "count" : 84,
            "type" : "SCALAR"
        },
        {
            "bufferView" : 6,
            "componentType" : 5126,
            "count" : 4,
            "max" : [
                -0.09999847412109375,
                1.3300002813339233,
                6.863315582275391
            ],
            "min" : [
                -0.09999847412109375,
                -1.1699997186660767,
                2.197662591934204
            ],
            "type" : "VEC3"
        },
        {
            "bufferView" : 7,
            "componentType" : 5126,
            "count" : 4,
            "type" : "VEC3"
        },
        {
            "bufferView" : 8,
            "componentType" : 5126,
            "count" : 4,
            "type" : "VEC2"
        },
        {
            "bufferView" : 9,
            "componentType" : 5126,
            "count" : 4,
            "type" : "VEC2"
        },
        {
            "bufferView" : 10,
            "componentType" : 5123,
            "count" : 6,
            "type" : "SCALAR"
        },
        {
            "bufferView" : 11,
            "componentType" : 5126,
            "count" : 12,
            "max" : [
                0.09999847412109375,
                0.9299987554550171,
                -0.7583448886871338
            ],
            "min" : [
                -0.09999847412109375,
                -1.1699997186660767,
                -1.8683453798294067
            ],
            "type" : "VEC3"
        },
        {
            "bufferView" : 12,
            "componentType" : 5126,
            "count" : 12,
            "type" : "VEC3"
        },
        {
            "bufferView" : 13,
            "componentType" : 5126,
            "count" : 12,
            "type" : "VEC2"
        },
        {
            "bufferView" : 14,
            "componentType" : 5126,
            "count" : 12,
            "type" : "VEC2"
        },
        {
            "bufferView" : 15,
            "componentType" : 5123,
            "count" : 18,
            "type" : "SCALAR"
        }
    ],
    "bufferViews" : [
        {
            "buffer" : 0,
            "byteLength" : 504,
            "byteOffset" : 0
        },
        {
            "buffer" : 0,
            "byteLength" : 504,
            "byteOffset" : 504
        },
        {
            "buffer" : 0,
            "byteLength" : 336,
            "byteOffset" : 1008
        },
        {
            "buffer" : 0,
            "byteLength" : 336,
            "byteOffset" : 1344
        },
        {
            "buffer" : 0,
            "byteLength" : 168,
            "byteOffset" : 1680
        },
        {
            "buffer" : 0,
            "byteLength" : 828034,
            "byteOffset" : 1848
        },
        {
            "buffer" : 0,
            "byteLength" : 48,
            "byteOffset" : 829884
        },
        {
            "buffer" : 0,
            "byteLength" : 48,
            "byteOffset" : 829932
        },
        {
            "buffer" : 0,
            "byteLength" : 32,
            "byteOffset" : 829980
        },
        {
            "buffer" : 0,
            "byteLength" : 32,
            "byteOffset" : 830012
        },
        {
            "buffer" : 0,
            "byteLength" : 12,
            "byteOffset" : 830044
        },
        {
            "buffer" : 0,
            "byteLength" : 144,
            "byteOffset" : 830056
        },
        {
            "buffer" : 0,
            "byteLength" : 144,
            "byteOffset" : 830200
        },
        {
            "buffer" : 0,
            "byteLength" : 96,
            "byteOffset" : 830344
        },
        {
            "buffer" : 0,
            "byteLength" : 96,
            "byteOffset" : 830440
        },
        {
            "buffer" : 0,
            "byteLength" : 36,
            "byteOffset" : 830536
        }
    ],
    "samplers" : [
        {
            "magFilter" : 9729,
            "minFilter" : 9986
        }
    ],
    "buffers" : [
        {
            "byteLength" : 830572,
            "uri" : "data:application/octet-stream;base64,"
        }
    ]
}
