{
    "asset" : {
        "generator" : "Khronos glTF Blender I/O v1.4.40",
        "version" : "2.0"
    },
    "scene" : 0,
    "scenes" : [
        {
            "name" : "Scene",
            "nodes" : [
                0
            ]
        }
    ],
    "nodes" : [
        {
            "mesh" : 0,
            "name" : "Cube.019"
        }
    ],
    "materials" : [
        {
            "doubleSided" : true,
            "name" : "LDTD-White.002",
            "pbrMetallicRoughness" : {
                "baseColorFactor" : [
                    0.6146150231361389,
                    0.6146150231361389,
                    0.6146150231361389,
                    1
                ],
                "baseColorTexture" : {
                    "index" : 0,
                    "texCoord" : 1
                },
                "metallicFactor" : 0,
                "roughnessFactor" : 0.17391300201416016
            }
        }
    ],
    "meshes" : [
        {
            "name" : "Cube.033",
            "primitives" : [
                {
                    "attributes" : {
                        "POSITION" : 0,
                        "NORMAL" : 1,
                        "TEXCOORD_0" : 2,
                        "TEXCOORD_1" : 3
                    },
                    "indices" : 4,
                    "material" : 0
                }
            ]
        }
    ],
    "textures" : [
        {
            "sampler" : 0,
            "source" : 0
        }
    ],
    "images" : [
        {
            "bufferView" : 5,
            "mimeType" : "image/png",
            "name" : "Cube"
        }
    ],
    "accessors" : [
        {
            "bufferView" : 0,
            "componentType" : 5126,
            "count" : 4608,
            "max" : [
                0.16835950314998627,
                0.3277755379676819,
                1.0299876928329468
            ],
            "min" : [
                -0.7118284702301025,
                -0.24222415685653687,
                -1.0200115442276
            ],
            "type" : "VEC3"
        },
        {
            "bufferView" : 1,
            "componentType" : 5126,
            "count" : 4608,
            "type" : "VEC3"
        },
        {
            "bufferView" : 2,
            "componentType" : 5126,
            "count" : 4608,
            "type" : "VEC2"
        },
        {
            "bufferView" : 3,
            "componentType" : 5126,
            "count" : 4608,
            "type" : "VEC2"
        },
        {
            "bufferView" : 4,
            "componentType" : 5123,
            "count" : 6768,
            "type" : "SCALAR"
        }
    ],
    "bufferViews" : [
        {
            "buffer" : 0,
            "byteLength" : 55296,
            "byteOffset" : 0
        },
        {
            "buffer" : 0,
            "byteLength" : 55296,
            "byteOffset" : 55296
        },
        {
            "buffer" : 0,
            "byteLength" : 36864,
            "byteOffset" : 110592
        },
        {
            "buffer" : 0,
            "byteLength" : 36864,
            "byteOffset" : 147456
        },
        {
            "buffer" : 0,
            "byteLength" : 13536,
            "byteOffset" : 184320
        },
        {
            "buffer" : 0,
            "byteLength" : 111257,
            "byteOffset" : 197856
        }
    ],
    "samplers" : [
        {
            "magFilter" : 9729,
            "minFilter" : 9986
        }
    ],
    "buffers" : [
        {
            "byteLength" : 309116,
            "uri" : "data:application/octet-stream;base64,"
        }
    ]
}
