{
    "asset" : {
        "generator" : "Khronos glTF Blender I/O v1.4.40",
        "version" : "2.0"
    },
    "scene" : 0,
    "scenes" : [
        {
            "name" : "Scene",
            "nodes" : [
                0
            ]
        }
    ],
    "nodes" : [
        {
            "mesh" : 0,
            "name" : "Cube.002"
        }
    ],
    "materials" : [
        {
            "doubleSided" : true,
            "name" : "Vegg.Generelt.004",
            "pbrMetallicRoughness" : {
                "baseColorFactor" : [
                    0.5647116899490356,
                    0.5583406686782837,
                    0.5149176120758057,
                    1
                ],
                "baseColorTexture" : {
                    "index" : 0,
                    "texCoord" : 1
                },
                "metallicFactor" : 0,
                "roughnessFactor" : 0.5
            }
        },
        {
            "doubleSided" : true,
            "name" : "Vegg.Soverom.003",
            "pbrMetallicRoughness" : {
                "baseColorFactor" : [
                    0.5394797921180725,
                    0.5271151661872864,
                    0.46207699179649353,
                    1
                ],
                "baseColorTexture" : {
                    "index" : 1,
                    "texCoord" : 1
                },
                "metallicFactor" : 0,
                "roughnessFactor" : 0.5
            }
        }
    ],
    "meshes" : [
        {
            "name" : "Cube.008",
            "primitives" : [
                {
                    "attributes" : {
                        "POSITION" : 0,
                        "NORMAL" : 1,
                        "TEXCOORD_0" : 2,
                        "TEXCOORD_1" : 3
                    },
                    "indices" : 4,
                    "material" : 0
                },
                {
                    "attributes" : {
                        "POSITION" : 5,
                        "NORMAL" : 6,
                        "TEXCOORD_0" : 7,
                        "TEXCOORD_1" : 8
                    },
                    "indices" : 9,
                    "material" : 1
                }
            ]
        }
    ],
    "textures" : [
        {
            "sampler" : 0,
            "source" : 0
        },
        {
            "sampler" : 0,
            "source" : 0
        }
    ],
    "images" : [
        {
            "bufferView" : 5,
            "mimeType" : "image/png",
            "name" : "Cube"
        }
    ],
    "accessors" : [
        {
            "bufferView" : 0,
            "componentType" : 5126,
            "count" : 54,
            "max" : [
                1.7885987758636475,
                1.3300002813339233,
                0.05650043487548828
            ],
            "min" : [
                -2.907392978668213,
                -1.1699997186660767,
                -0.05650043487548828
            ],
            "type" : "VEC3"
        },
        {
            "bufferView" : 1,
            "componentType" : 5126,
            "count" : 54,
            "type" : "VEC3"
        },
        {
            "bufferView" : 2,
            "componentType" : 5126,
            "count" : 54,
            "type" : "VEC2"
        },
        {
            "bufferView" : 3,
            "componentType" : 5126,
            "count" : 54,
            "type" : "VEC2"
        },
        {
            "bufferView" : 4,
            "componentType" : 5123,
            "count" : 90,
            "type" : "SCALAR"
        },
        {
            "bufferView" : 6,
            "componentType" : 5126,
            "count" : 8,
            "max" : [
                1.7885987758636475,
                1.3300002813339233,
                0.05650043487548828
            ],
            "min" : [
                -1.3483948707580566,
                -1.1699997186660767,
                0.05650043487548828
            ],
            "type" : "VEC3"
        },
        {
            "bufferView" : 7,
            "componentType" : 5126,
            "count" : 8,
            "type" : "VEC3"
        },
        {
            "bufferView" : 8,
            "componentType" : 5126,
            "count" : 8,
            "type" : "VEC2"
        },
        {
            "bufferView" : 9,
            "componentType" : 5126,
            "count" : 8,
            "type" : "VEC2"
        },
        {
            "bufferView" : 10,
            "componentType" : 5123,
            "count" : 18,
            "type" : "SCALAR"
        }
    ],
    "bufferViews" : [
        {
            "buffer" : 0,
            "byteLength" : 648,
            "byteOffset" : 0
        },
        {
            "buffer" : 0,
            "byteLength" : 648,
            "byteOffset" : 648
        },
        {
            "buffer" : 0,
            "byteLength" : 432,
            "byteOffset" : 1296
        },
        {
            "buffer" : 0,
            "byteLength" : 432,
            "byteOffset" : 1728
        },
        {
            "buffer" : 0,
            "byteLength" : 180,
            "byteOffset" : 2160
        },
        {
            "buffer" : 0,
            "byteLength" : 285697,
            "byteOffset" : 2340
        },
        {
            "buffer" : 0,
            "byteLength" : 96,
            "byteOffset" : 288040
        },
        {
            "buffer" : 0,
            "byteLength" : 96,
            "byteOffset" : 288136
        },
        {
            "buffer" : 0,
            "byteLength" : 64,
            "byteOffset" : 288232
        },
        {
            "buffer" : 0,
            "byteLength" : 64,
            "byteOffset" : 288296
        },
        {
            "buffer" : 0,
            "byteLength" : 36,
            "byteOffset" : 288360
        }
    ],
    "samplers" : [
        {
            "magFilter" : 9729,
            "minFilter" : 9986
        }
    ],
    "buffers" : [
        {
            "byteLength" : 288396,
            "uri" : "data:application/octet-stream;base64,"
        }
    ]
}
