{
    "asset" : {
        "generator" : "Khronos glTF Blender I/O v1.4.40",
        "version" : "2.0"
    },
    "scene" : 0,
    "scenes" : [
        {
            "name" : "Scene",
            "nodes" : [
                0
            ]
        }
    ],
    "nodes" : [
        {
            "mesh" : 0,
            "name" : "Cube.006"
        }
    ],
    "materials" : [
        {
            "doubleSided" : true,
            "name" : "Vegg.Generelt.008",
            "pbrMetallicRoughness" : {
                "baseColorFactor" : [
                    0.5647116899490356,
                    0.5583406686782837,
                    0.5149176120758057,
                    1
                ],
                "baseColorTexture" : {
                    "index" : 0,
                    "texCoord" : 1
                },
                "metallicFactor" : 0,
                "roughnessFactor" : 0.5
            }
        },
        {
            "doubleSided" : true,
            "name" : "Vegg.Soverom.004",
            "pbrMetallicRoughness" : {
                "baseColorFactor" : [
                    0.5394797921180725,
                    0.5271151661872864,
                    0.46207699179649353,
                    1
                ],
                "baseColorTexture" : {
                    "index" : 1,
                    "texCoord" : 1
                },
                "metallicFactor" : 0,
                "roughnessFactor" : 0.5
            }
        }
    ],
    "meshes" : [
        {
            "name" : "Cube.012",
            "primitives" : [
                {
                    "attributes" : {
                        "POSITION" : 0,
                        "NORMAL" : 1,
                        "TEXCOORD_0" : 2,
                        "TEXCOORD_1" : 3
                    },
                    "indices" : 4,
                    "material" : 0
                },
                {
                    "attributes" : {
                        "POSITION" : 5,
                        "NORMAL" : 6,
                        "TEXCOORD_0" : 7,
                        "TEXCOORD_1" : 8
                    },
                    "indices" : 9,
                    "material" : 1
                }
            ]
        }
    ],
    "textures" : [
        {
            "sampler" : 0,
            "source" : 0
        },
        {
            "sampler" : 0,
            "source" : 0
        }
    ],
    "images" : [
        {
            "bufferView" : 5,
            "mimeType" : "image/png",
            "name" : "Cube"
        }
    ],
    "accessors" : [
        {
            "bufferView" : 0,
            "componentType" : 5126,
            "count" : 40,
            "max" : [
                0.06650161743164062,
                1.3500003814697266,
                1.1176257133483887
            ],
            "min" : [
                -0.06650161743164062,
                -1.1499996185302734,
                -2.2533764839172363
            ],
            "type" : "VEC3"
        },
        {
            "bufferView" : 1,
            "componentType" : 5126,
            "count" : 40,
            "type" : "VEC3"
        },
        {
            "bufferView" : 2,
            "componentType" : 5126,
            "count" : 40,
            "type" : "VEC2"
        },
        {
            "bufferView" : 3,
            "componentType" : 5126,
            "count" : 40,
            "type" : "VEC2"
        },
        {
            "bufferView" : 4,
            "componentType" : 5123,
            "count" : 66,
            "type" : "SCALAR"
        },
        {
            "bufferView" : 6,
            "componentType" : 5126,
            "count" : 8,
            "max" : [
                0.06650161743164062,
                1.3500003814697266,
                1.1176257133483887
            ],
            "min" : [
                0.06650161743164062,
                -1.1499996185302734,
                -2.2533764839172363
            ],
            "type" : "VEC3"
        },
        {
            "bufferView" : 7,
            "componentType" : 5126,
            "count" : 8,
            "type" : "VEC3"
        },
        {
            "bufferView" : 8,
            "componentType" : 5126,
            "count" : 8,
            "type" : "VEC2"
        },
        {
            "bufferView" : 9,
            "componentType" : 5126,
            "count" : 8,
            "type" : "VEC2"
        },
        {
            "bufferView" : 10,
            "componentType" : 5123,
            "count" : 18,
            "type" : "SCALAR"
        }
    ],
    "bufferViews" : [
        {
            "buffer" : 0,
            "byteLength" : 480,
            "byteOffset" : 0
        },
        {
            "buffer" : 0,
            "byteLength" : 480,
            "byteOffset" : 480
        },
        {
            "buffer" : 0,
            "byteLength" : 320,
            "byteOffset" : 960
        },
        {
            "buffer" : 0,
            "byteLength" : 320,
            "byteOffset" : 1280
        },
        {
            "buffer" : 0,
            "byteLength" : 132,
            "byteOffset" : 1600
        },
        {
            "buffer" : 0,
            "byteLength" : 338324,
            "byteOffset" : 1732
        },
        {
            "buffer" : 0,
            "byteLength" : 96,
            "byteOffset" : 340056
        },
        {
            "buffer" : 0,
            "byteLength" : 96,
            "byteOffset" : 340152
        },
        {
            "buffer" : 0,
            "byteLength" : 64,
            "byteOffset" : 340248
        },
        {
            "buffer" : 0,
            "byteLength" : 64,
            "byteOffset" : 340312
        },
        {
            "buffer" : 0,
            "byteLength" : 36,
            "byteOffset" : 340376
        }
    ],
    "samplers" : [
        {
            "magFilter" : 9729,
            "minFilter" : 9986
        }
    ],
    "buffers" : [
        {
            "byteLength" : 340412,
            "uri" : "data:application/octet-stream;base64,"
        }
    ]
}
