{
    "asset" : {
        "generator" : "Khronos glTF Blender I/O v1.4.40",
        "version" : "2.0"
    },
    "scene" : 0,
    "scenes" : [
        {
            "name" : "Scene",
            "nodes" : [
                0
            ]
        }
    ],
    "nodes" : [
        {
            "mesh" : 0,
            "name" : "Cube.021"
        }
    ],
    "materials" : [
        {
            "doubleSided" : true,
            "name" : "LDTD-Glossy-Black.004",
            "pbrMetallicRoughness" : {
                "baseColorFactor" : [
                    0.015325205400586128,
                    0.014398541301488876,
                    0.015220880508422852,
                    1
                ],
                "metallicFactor" : 0,
                "roughnessFactor" : 0.0020000000949949026
            }
        }
    ],
    "meshes" : [
        {
            "name" : "Cube.035",
            "primitives" : [
                {
                    "attributes" : {
                        "POSITION" : 0,
                        "NORMAL" : 1,
                        "TEXCOORD_0" : 2,
                        "TEXCOORD_1" : 3
                    },
                    "indices" : 4,
                    "material" : 0
                }
            ]
        }
    ],
    "accessors" : [
        {
            "bufferView" : 0,
            "componentType" : 5126,
            "count" : 137,
            "max" : [
                0.30828720331192017,
                0.005182602908462286,
                1.3697755336761475
            ],
            "min" : [
                -0.30714553594589233,
                -0.014817855320870876,
                -1.3181962966918945
            ],
            "type" : "VEC3"
        },
        {
            "bufferView" : 1,
            "componentType" : 5126,
            "count" : 137,
            "type" : "VEC3"
        },
        {
            "bufferView" : 2,
            "componentType" : 5126,
            "count" : 137,
            "type" : "VEC2"
        },
        {
            "bufferView" : 3,
            "componentType" : 5126,
            "count" : 137,
            "type" : "VEC2"
        },
        {
            "bufferView" : 4,
            "componentType" : 5123,
            "count" : 348,
            "type" : "SCALAR"
        }
    ],
    "bufferViews" : [
        {
            "buffer" : 0,
            "byteLength" : 1644,
            "byteOffset" : 0
        },
        {
            "buffer" : 0,
            "byteLength" : 1644,
            "byteOffset" : 1644
        },
        {
            "buffer" : 0,
            "byteLength" : 1096,
            "byteOffset" : 3288
        },
        {
            "buffer" : 0,
            "byteLength" : 1096,
            "byteOffset" : 4384
        },
        {
            "buffer" : 0,
            "byteLength" : 696,
            "byteOffset" : 5480
        }
    ],
    "buffers" : [
        {
            "byteLength" : 6176,
            "uri" : "data:application/octet-stream;base64,"
        }
    ]
}
