{
    "asset" : {
        "generator" : "Khronos glTF Blender I/O v1.4.40",
        "version" : "2.0"
    },
    "scene" : 0,
    "scenes" : [
        {
            "name" : "Scene",
            "nodes" : [
                0
            ]
        }
    ],
    "nodes" : [
        {
            "mesh" : 0,
            "name" : "Cube.043"
        }
    ],
    "materials" : [
        {
            "doubleSided" : true,
            "name" : "Chrome.006",
            "pbrMetallicRoughness" : {
                "baseColorFactor" : [
                    0.532439649105072,
                    0.532439649105072,
                    0.532439649105072,
                    1
                ],
                "roughnessFactor" : 0.1725085973739624
            }
        }
    ],
    "meshes" : [
        {
            "name" : "Cube.060",
            "primitives" : [
                {
                    "attributes" : {
                        "POSITION" : 0,
                        "NORMAL" : 1
                    },
                    "indices" : 2,
                    "material" : 0
                }
            ]
        }
    ],
    "accessors" : [
        {
            "bufferView" : 0,
            "componentType" : 5126,
            "count" : 1794,
            "max" : [
                0.03609191253781319,
                0.027613075450062752,
                0.028594035655260086
            ],
            "min" : [
                -0.04287967458367348,
                -0.027613075450062752,
                -0.026632115244865417
            ],
            "type" : "VEC3"
        },
        {
            "bufferView" : 1,
            "componentType" : 5126,
            "count" : 1794,
            "type" : "VEC3"
        },
        {
            "bufferView" : 2,
            "componentType" : 5123,
            "count" : 2748,
            "type" : "SCALAR"
        }
    ],
    "bufferViews" : [
        {
            "buffer" : 0,
            "byteLength" : 21528,
            "byteOffset" : 0
        },
        {
            "buffer" : 0,
            "byteLength" : 21528,
            "byteOffset" : 21528
        },
        {
            "buffer" : 0,
            "byteLength" : 5496,
            "byteOffset" : 43056
        }
    ],
    "buffers" : [
        {
            "byteLength" : 48552,
            "uri" : "data:application/octet-stream;base64,"
        }
    ]
}
