{
    "asset" : {
        "generator" : "Khronos glTF Blender I/O v1.4.40",
        "version" : "2.0"
    },
    "scene" : 0,
    "scenes" : [
        {
            "name" : "Scene",
            "nodes" : [
                0
            ]
        }
    ],
    "nodes" : [
        {
            "mesh" : 0,
            "name" : "Cylinder.011"
        }
    ],
    "materials" : [
        {
            "doubleSided" : true,
            "name" : "Aluminium",
            "pbrMetallicRoughness" : {
                "baseColorFactor" : [
                    0.06680663675069809,
                    0.06680663675069809,
                    0.06680663675069809,
                    1
                ],
                "metallicFactor" : 0,
                "roughnessFactor" : 0.2310924232006073
            }
        }
    ],
    "meshes" : [
        {
            "name" : "Cylinder.011",
            "primitives" : [
                {
                    "attributes" : {
                        "POSITION" : 0,
                        "NORMAL" : 1,
                        "TEXCOORD_0" : 2
                    },
                    "indices" : 3,
                    "material" : 0
                }
            ]
        }
    ],
    "accessors" : [
        {
            "bufferView" : 0,
            "componentType" : 5126,
            "count" : 66,
            "max" : [
                0.02499999850988388,
                0.5249999761581421,
                0.02500000037252903
            ],
            "min" : [
                -0.02500000223517418,
                -0.5249999761581421,
                -0.02500000037252903
            ],
            "type" : "VEC3"
        },
        {
            "bufferView" : 1,
            "componentType" : 5126,
            "count" : 66,
            "type" : "VEC3"
        },
        {
            "bufferView" : 2,
            "componentType" : 5126,
            "count" : 66,
            "type" : "VEC2"
        },
        {
            "bufferView" : 3,
            "componentType" : 5123,
            "count" : 180,
            "type" : "SCALAR"
        }
    ],
    "bufferViews" : [
        {
            "buffer" : 0,
            "byteLength" : 792,
            "byteOffset" : 0
        },
        {
            "buffer" : 0,
            "byteLength" : 792,
            "byteOffset" : 792
        },
        {
            "buffer" : 0,
            "byteLength" : 528,
            "byteOffset" : 1584
        },
        {
            "buffer" : 0,
            "byteLength" : 360,
            "byteOffset" : 2112
        }
    ],
    "buffers" : [
        {
            "byteLength" : 2472,
            "uri" : "data:application/octet-stream;base64,"
        }
    ]
}
