{
    "asset" : {
        "generator" : "Khronos glTF Blender I/O v1.4.40",
        "version" : "2.0"
    },
    "scene" : 0,
    "scenes" : [
        {
            "name" : "Scene",
            "nodes" : [
                0
            ]
        }
    ],
    "nodes" : [
        {
            "mesh" : 0,
            "name" : "Cylinder.003",
            "scale" : [
                0.05000000074505806,
                0.009999999776482582,
                0.05000000074505806
            ]
        }
    ],
    "materials" : [
        {
            "doubleSided" : true,
            "name" : "Material.002",
            "pbrMetallicRoughness" : {
                "roughnessFactor" : 0.5
            }
        },
        {
            "doubleSided" : true,
            "emissiveFactor" : [
                1,
                1,
                1
            ],
            "name" : "Emissive_4K",
            "pbrMetallicRoughness" : {}
        }
    ],
    "meshes" : [
        {
            "name" : "Cylinder.003",
            "primitives" : [
                {
                    "attributes" : {
                        "POSITION" : 0,
                        "NORMAL" : 1,
                        "TEXCOORD_0" : 2
                    },
                    "indices" : 3
                },
                {
                    "attributes" : {
                        "POSITION" : 4,
                        "NORMAL" : 5,
                        "TEXCOORD_0" : 6
                    },
                    "indices" : 7,
                    "material" : 0
                },
                {
                    "attributes" : {
                        "POSITION" : 8,
                        "NORMAL" : 9,
                        "TEXCOORD_0" : 10
                    },
                    "indices" : 11,
                    "material" : 1
                }
            ]
        }
    ],
    "accessors" : [
        {
            "bufferView" : 0,
            "componentType" : 5126,
            "count" : 114,
            "max" : [
                0.9999999403953552,
                1.444637656211853,
                1.0000001192092896
            ],
            "min" : [
                -1,
                -0.5553622245788574,
                -0.9999999403953552
            ],
            "type" : "VEC3"
        },
        {
            "bufferView" : 1,
            "componentType" : 5126,
            "count" : 114,
            "type" : "VEC3"
        },
        {
            "bufferView" : 2,
            "componentType" : 5126,
            "count" : 114,
            "type" : "VEC2"
        },
        {
            "bufferView" : 3,
            "componentType" : 5123,
            "count" : 330,
            "type" : "SCALAR"
        },
        {
            "bufferView" : 4,
            "componentType" : 5126,
            "count" : 32,
            "max" : [
                0.823495090007782,
                -0.1668703258037567,
                0.8234952092170715
            ],
            "min" : [
                -0.8234952092170715,
                -0.16704359650611877,
                -0.823495090007782
            ],
            "type" : "VEC3"
        },
        {
            "bufferView" : 5,
            "componentType" : 5126,
            "count" : 32,
            "type" : "VEC3"
        },
        {
            "bufferView" : 6,
            "componentType" : 5126,
            "count" : 32,
            "type" : "VEC2"
        },
        {
            "bufferView" : 7,
            "componentType" : 5123,
            "count" : 96,
            "type" : "SCALAR"
        },
        {
            "bufferView" : 8,
            "componentType" : 5126,
            "count" : 16,
            "max" : [
                0.5976871848106384,
                -0.1668703258037567,
                0.5976869463920593
            ],
            "min" : [
                -0.597687304019928,
                -0.1668703258037567,
                -0.5976876020431519
            ],
            "type" : "VEC3"
        },
        {
            "bufferView" : 9,
            "componentType" : 5126,
            "count" : 16,
            "type" : "VEC3"
        },
        {
            "bufferView" : 10,
            "componentType" : 5126,
            "count" : 16,
            "type" : "VEC2"
        },
        {
            "bufferView" : 11,
            "componentType" : 5123,
            "count" : 42,
            "type" : "SCALAR"
        }
    ],
    "bufferViews" : [
        {
            "buffer" : 0,
            "byteLength" : 1368,
            "byteOffset" : 0
        },
        {
            "buffer" : 0,
            "byteLength" : 1368,
            "byteOffset" : 1368
        },
        {
            "buffer" : 0,
            "byteLength" : 912,
            "byteOffset" : 2736
        },
        {
            "buffer" : 0,
            "byteLength" : 660,
            "byteOffset" : 3648
        },
        {
            "buffer" : 0,
            "byteLength" : 384,
            "byteOffset" : 4308
        },
        {
            "buffer" : 0,
            "byteLength" : 384,
            "byteOffset" : 4692
        },
        {
            "buffer" : 0,
            "byteLength" : 256,
            "byteOffset" : 5076
        },
        {
            "buffer" : 0,
            "byteLength" : 192,
            "byteOffset" : 5332
        },
        {
            "buffer" : 0,
            "byteLength" : 192,
            "byteOffset" : 5524
        },
        {
            "buffer" : 0,
            "byteLength" : 192,
            "byteOffset" : 5716
        },
        {
            "buffer" : 0,
            "byteLength" : 128,
            "byteOffset" : 5908
        },
        {
            "buffer" : 0,
            "byteLength" : 84,
            "byteOffset" : 6036
        }
    ],
    "buffers" : [
        {
            "byteLength" : 6120,
            "uri" : "data:application/octet-stream;base64,"
        }
    ]
}
