{
    "asset" : {
        "generator" : "Khronos glTF Blender I/O v1.4.40",
        "version" : "2.0"
    },
    "scene" : 0,
    "scenes" : [
        {
            "name" : "Scene",
            "nodes" : [
                1
            ]
        }
    ],
    "nodes" : [
        {
            "mesh" : 0,
            "name" : "DoorHandle.002",
            "rotation" : [
                -0.376030296087265,
                0,
                -0.9266073703765869,
                2.614236791487201e-07
            ],
            "scale" : [
                -1,
                -1,
                -1
            ],
            "translation" : [
                -0.8892735242843628,
                -18.684959411621094,
                -3.0588462352752686
            ]
        },
        {
            "children" : [
                0
            ],
            "name" : "DoorA.002",
            "translation" : [
                0.8892735242843628,
                18.684959411621094,
                3.0588462352752686
            ]
        }
    ],
    "materials" : [
        {
            "doubleSided" : true,
            "name" : "Metal",
            "pbrMetallicRoughness" : {
                "baseColorFactor" : [
                    0.800000011920929,
                    0.800000011920929,
                    0.800000011920929,
                    1
                ],
                "roughnessFactor" : 0.30000001192092896
            }
        }
    ],
    "meshes" : [
        {
            "name" : "ID1 10x21M.003",
            "primitives" : [
                {
                    "attributes" : {
                        "POSITION" : 0,
                        "NORMAL" : 1,
                        "TEXCOORD_0" : 2
                    },
                    "indices" : 3,
                    "material" : 0
                }
            ]
        }
    ],
    "accessors" : [
        {
            "bufferView" : 0,
            "componentType" : 5126,
            "count" : 407,
            "max" : [
                0.03565049543976784,
                0.047158900648355484,
                0.08513602614402771
            ],
            "min" : [
                -0.10934948921203613,
                -0.07698839902877808,
                -0.085080087184906
            ],
            "type" : "VEC3"
        },
        {
            "bufferView" : 1,
            "componentType" : 5126,
            "count" : 407,
            "type" : "VEC3"
        },
        {
            "bufferView" : 2,
            "componentType" : 5126,
            "count" : 407,
            "type" : "VEC2"
        },
        {
            "bufferView" : 3,
            "componentType" : 5123,
            "count" : 1044,
            "type" : "SCALAR"
        }
    ],
    "bufferViews" : [
        {
            "buffer" : 0,
            "byteLength" : 4884,
            "byteOffset" : 0
        },
        {
            "buffer" : 0,
            "byteLength" : 4884,
            "byteOffset" : 4884
        },
        {
            "buffer" : 0,
            "byteLength" : 3256,
            "byteOffset" : 9768
        },
        {
            "buffer" : 0,
            "byteLength" : 2088,
            "byteOffset" : 13024
        }
    ],
    "buffers" : [
        {
            "byteLength" : 15112,
            "uri" : "data:application/octet-stream;base64,"
        }
    ]
}
