{
    "asset" : {
        "generator" : "Khronos glTF Blender I/O v1.4.40",
        "version" : "2.0"
    },
    "scene" : 0,
    "scenes" : [
        {
            "name" : "Scene",
            "nodes" : [
                0
            ]
        }
    ],
    "nodes" : [
        {
            "mesh" : 0,
            "name" : "FloorSelectAMarker",
            "scale" : [
                0.02375321090221405,
                0.36725494265556335,
                0.02375321090221405
            ]
        }
    ],
    "materials" : [
        {
            "doubleSided" : true,
            "emissiveFactor" : [
                0.9604257345199585,
                1,
                0
            ],
            "name" : "Selector",
            "pbrMetallicRoughness" : {}
        }
    ],
    "meshes" : [
        {
            "name" : "Cube.046",
            "primitives" : [
                {
                    "attributes" : {
                        "POSITION" : 0,
                        "NORMAL" : 1,
                        "TEXCOORD_0" : 2
                    },
                    "indices" : 3,
                    "material" : 0
                }
            ]
        }
    ],
    "accessors" : [
        {
            "bufferView" : 0,
            "componentType" : 5126,
            "count" : 3273,
            "max" : [
                8.161201477050781,
                0.11016303300857544,
                1.0000077486038208
            ],
            "min" : [
                -11.646791458129883,
                -2.664398431777954,
                -0.9999922513961792
            ],
            "type" : "VEC3"
        },
        {
            "bufferView" : 1,
            "componentType" : 5126,
            "count" : 3273,
            "type" : "VEC3"
        },
        {
            "bufferView" : 2,
            "componentType" : 5126,
            "count" : 3273,
            "type" : "VEC2"
        },
        {
            "bufferView" : 3,
            "componentType" : 5123,
            "count" : 4980,
            "type" : "SCALAR"
        }
    ],
    "bufferViews" : [
        {
            "buffer" : 0,
            "byteLength" : 39276,
            "byteOffset" : 0
        },
        {
            "buffer" : 0,
            "byteLength" : 39276,
            "byteOffset" : 39276
        },
        {
            "buffer" : 0,
            "byteLength" : 26184,
            "byteOffset" : 78552
        },
        {
            "buffer" : 0,
            "byteLength" : 9960,
            "byteOffset" : 104736
        }
    ],
    "buffers" : [
        {
            "byteLength" : 114696,
            "uri" : "data:application/octet-stream;base64,"
        }
    ]
}
