{
    "asset" : {
        "generator" : "Khronos glTF Blender I/O v1.4.40",
        "version" : "2.0"
    },
    "scene" : 0,
    "scenes" : [
        {
            "name" : "Scene",
            "nodes" : [
                0
            ]
        }
    ],
    "nodes" : [
        {
            "mesh" : 0,
            "name" : "FlowerPot.001",
            "rotation" : [
                0,
                -0.9494799971580505,
                0,
                -0.31382790207862854
            ]
        }
    ],
    "materials" : [
        {
            "doubleSided" : true,
            "name" : "Plastic.White.Inst",
            "pbrMetallicRoughness" : {
                "baseColorFactor" : [
                    0.5554751753807068,
                    0.5554751753807068,
                    0.5554751753807068,
                    1
                ],
                "baseColorTexture" : {
                    "index" : 0,
                    "texCoord" : 1
                },
                "metallicFactor" : 0,
                "roughnessFactor" : 0.5527864098548889
            }
        },
        {
            "doubleSided" : true,
            "name" : "Ground.inst",
            "normalTexture" : {
                "index" : 1,
                "texCoord" : 0
            },
            "pbrMetallicRoughness" : {
                "baseColorTexture" : {
                    "index" : 2,
                    "texCoord" : 1
                },
                "metallicFactor" : 0,
                "roughnessFactor" : 0.5527864098548889
            }
        }
    ],
    "meshes" : [
        {
            "name" : "FlowerPot.001",
            "primitives" : [
                {
                    "attributes" : {
                        "POSITION" : 0,
                        "NORMAL" : 1,
                        "TEXCOORD_0" : 2,
                        "TEXCOORD_1" : 3
                    },
                    "indices" : 4,
                    "material" : 0
                },
                {
                    "attributes" : {
                        "POSITION" : 5,
                        "NORMAL" : 6,
                        "TEXCOORD_0" : 7,
                        "TEXCOORD_1" : 8
                    },
                    "indices" : 9,
                    "material" : 1
                }
            ]
        }
    ],
    "textures" : [
        {
            "sampler" : 0,
            "source" : 0
        },
        {
            "sampler" : 0,
            "source" : 1
        },
        {
            "sampler" : 0,
            "source" : 0
        }
    ],
    "images" : [
        {
            "bufferView" : 5,
            "mimeType" : "image/png",
            "name" : "FlowerPot"
        },
        {
            "bufferView" : 11,
            "mimeType" : "image/png",
            "name" : "Ground_N"
        }
    ],
    "accessors" : [
        {
            "bufferView" : 0,
            "componentType" : 5126,
            "count" : 545,
            "max" : [
                0.14814819395542145,
                0.04274827241897583,
                0.14821575582027435
            ],
            "min" : [
                -0.14838773012161255,
                -0.12527726590633392,
                -0.14832016825675964
            ],
            "type" : "VEC3"
        },
        {
            "bufferView" : 1,
            "componentType" : 5126,
            "count" : 545,
            "type" : "VEC3"
        },
        {
            "bufferView" : 2,
            "componentType" : 5126,
            "count" : 545,
            "type" : "VEC2"
        },
        {
            "bufferView" : 3,
            "componentType" : 5126,
            "count" : 545,
            "type" : "VEC2"
        },
        {
            "bufferView" : 4,
            "componentType" : 5123,
            "count" : 2808,
            "type" : "SCALAR"
        },
        {
            "bufferView" : 6,
            "componentType" : 5126,
            "count" : 145,
            "max" : [
                0.13106094300746918,
                0.02372083254158497,
                0.13004012405872345
            ],
            "min" : [
                -0.1309405118227005,
                0.011104898527264595,
                -0.13196133077144623
            ],
            "type" : "VEC3"
        },
        {
            "bufferView" : 7,
            "componentType" : 5126,
            "count" : 145,
            "type" : "VEC3"
        },
        {
            "bufferView" : 8,
            "componentType" : 5126,
            "count" : 145,
            "type" : "VEC2"
        },
        {
            "bufferView" : 9,
            "componentType" : 5126,
            "count" : 145,
            "type" : "VEC2"
        },
        {
            "bufferView" : 10,
            "componentType" : 5123,
            "count" : 792,
            "type" : "SCALAR"
        }
    ],
    "bufferViews" : [
        {
            "buffer" : 0,
            "byteLength" : 6540,
            "byteOffset" : 0
        },
        {
            "buffer" : 0,
            "byteLength" : 6540,
            "byteOffset" : 6540
        },
        {
            "buffer" : 0,
            "byteLength" : 4360,
            "byteOffset" : 13080
        },
        {
            "buffer" : 0,
            "byteLength" : 4360,
            "byteOffset" : 17440
        },
        {
            "buffer" : 0,
            "byteLength" : 5616,
            "byteOffset" : 21800
        },
        {
            "buffer" : 0,
            "byteLength" : 18500,
            "byteOffset" : 27416
        },
        {
            "buffer" : 0,
            "byteLength" : 1740,
            "byteOffset" : 45916
        },
        {
            "buffer" : 0,
            "byteLength" : 1740,
            "byteOffset" : 47656
        },
        {
            "buffer" : 0,
            "byteLength" : 1160,
            "byteOffset" : 49396
        },
        {
            "buffer" : 0,
            "byteLength" : 1160,
            "byteOffset" : 50556
        },
        {
            "buffer" : 0,
            "byteLength" : 1584,
            "byteOffset" : 51716
        },
        {
            "buffer" : 0,
            "byteLength" : 730049,
            "byteOffset" : 53300
        }
    ],
    "samplers" : [
        {
            "magFilter" : 9729,
            "minFilter" : 9986
        }
    ],
    "buffers" : [
        {
            "byteLength" : 783352,
            "uri" : "data:application/octet-stream;base64,"
        }
    ]
}
