{
    "asset" : {
        "generator" : "Khronos glTF Blender I/O v1.4.40",
        "version" : "2.0"
    },
    "scene" : 0,
    "scenes" : [
        {
            "name" : "Scene",
            "nodes" : [
                0
            ]
        }
    ],
    "nodes" : [
        {
            "mesh" : 0,
            "name" : "Plane.058"
        }
    ],
    "materials" : [
        {
            "doubleSided" : true,
            "name" : "Material.018",
            "pbrMetallicRoughness" : {
                "baseColorFactor" : [
                    0.800000011920929,
                    0.800000011920929,
                    0.800000011920929,
                    1
                ],
                "baseColorTexture" : {
                    "index" : 0,
                    "texCoord" : 1
                },
                "metallicFactor" : 0,
                "roughnessFactor" : 0.5
            }
        },
        {
            "doubleSided" : true,
            "name" : "Material.019",
            "pbrMetallicRoughness" : {
                "baseColorFactor" : [
                    0.800000011920929,
                    0.800000011920929,
                    0.800000011920929,
                    1
                ],
                "baseColorTexture" : {
                    "index" : 1,
                    "texCoord" : 1
                },
                "metallicFactor" : 0,
                "roughnessFactor" : 0.5
            }
        }
    ],
    "meshes" : [
        {
            "name" : "Plane.069",
            "primitives" : [
                {
                    "attributes" : {
                        "POSITION" : 0,
                        "NORMAL" : 1,
                        "TEXCOORD_0" : 2
                    },
                    "indices" : 3,
                    "material" : 0
                },
                {
                    "attributes" : {
                        "POSITION" : 4,
                        "NORMAL" : 5,
                        "TEXCOORD_0" : 6
                    },
                    "indices" : 7,
                    "material" : 1
                }
            ]
        }
    ],
    "textures" : [
        {
            "sampler" : 0,
            "source" : 0
        },
        {
            "sampler" : 0,
            "source" : 0
        }
    ],
    "images" : [
        {
            "bufferView" : 4,
            "mimeType" : "image/png",
            "name" : "Plane"
        }
    ],
    "accessors" : [
        {
            "bufferView" : 0,
            "componentType" : 5126,
            "count" : 5725,
            "max" : [
                0.40766650438308716,
                0.24418464303016663,
                0.8498725295066833
            ],
            "min" : [
                -0.3299331068992615,
                -0.2691648304462433,
                -0.8498812317848206
            ],
            "type" : "VEC3"
        },
        {
            "bufferView" : 1,
            "componentType" : 5126,
            "count" : 5725,
            "type" : "VEC3"
        },
        {
            "bufferView" : 2,
            "componentType" : 5126,
            "count" : 5725,
            "type" : "VEC2"
        },
        {
            "bufferView" : 3,
            "componentType" : 5123,
            "count" : 29664,
            "type" : "SCALAR"
        },
        {
            "bufferView" : 5,
            "componentType" : 5126,
            "count" : 1364,
            "max" : [
                -0.03006630763411522,
                0.19647672772407532,
                0.04449097812175751
            ],
            "min" : [
                -0.23018580675125122,
                -0.2659713923931122,
                -0.044499471783638
            ],
            "type" : "VEC3"
        },
        {
            "bufferView" : 6,
            "componentType" : 5126,
            "count" : 1364,
            "type" : "VEC3"
        },
        {
            "bufferView" : 7,
            "componentType" : 5126,
            "count" : 1364,
            "type" : "VEC2"
        },
        {
            "bufferView" : 8,
            "componentType" : 5123,
            "count" : 5760,
            "type" : "SCALAR"
        }
    ],
    "bufferViews" : [
        {
            "buffer" : 0,
            "byteLength" : 68700,
            "byteOffset" : 0
        },
        {
            "buffer" : 0,
            "byteLength" : 68700,
            "byteOffset" : 68700
        },
        {
            "buffer" : 0,
            "byteLength" : 45800,
            "byteOffset" : 137400
        },
        {
            "buffer" : 0,
            "byteLength" : 59328,
            "byteOffset" : 183200
        },
        {
            "buffer" : 0,
            "byteLength" : 41304,
            "byteOffset" : 242528
        },
        {
            "buffer" : 0,
            "byteLength" : 16368,
            "byteOffset" : 283832
        },
        {
            "buffer" : 0,
            "byteLength" : 16368,
            "byteOffset" : 300200
        },
        {
            "buffer" : 0,
            "byteLength" : 10912,
            "byteOffset" : 316568
        },
        {
            "buffer" : 0,
            "byteLength" : 11520,
            "byteOffset" : 327480
        }
    ],
    "samplers" : [
        {
            "magFilter" : 9729,
            "minFilter" : 9986
        }
    ],
    "buffers" : [
        {
            "byteLength" : 339000,
            "uri" : "data:application/octet-stream;base64,"
        }
    ]
}
