{
    "asset" : {
        "generator" : "Khronos glTF Blender I/O v1.4.40",
        "version" : "2.0"
    },
    "scene" : 0,
    "scenes" : [
        {
            "name" : "Scene",
            "nodes" : [
                0
            ]
        }
    ],
    "nodes" : [
        {
            "mesh" : 0,
            "name" : "Plane.023"
        }
    ],
    "materials" : [
        {
            "doubleSided" : true,
            "name" : "Chrome.005",
            "pbrMetallicRoughness" : {
                "baseColorFactor" : [
                    0.532439649105072,
                    0.532439649105072,
                    0.532439649105072,
                    1
                ],
                "roughnessFactor" : 0.1725085973739624
            }
        },
        {
            "doubleSided" : true,
            "name" : "Null",
            "pbrMetallicRoughness" : {}
        }
    ],
    "meshes" : [
        {
            "name" : "Plane.703",
            "primitives" : [
                {
                    "attributes" : {
                        "POSITION" : 0,
                        "NORMAL" : 1
                    },
                    "indices" : 2,
                    "material" : 0
                },
                {
                    "attributes" : {
                        "POSITION" : 3,
                        "NORMAL" : 4
                    },
                    "indices" : 5,
                    "material" : 1
                }
            ]
        }
    ],
    "accessors" : [
        {
            "bufferView" : 0,
            "componentType" : 5126,
            "count" : 18240,
            "max" : [
                0.17976096272468567,
                0.5736086368560791,
                0.07578738778829575
            ],
            "min" : [
                -0.15415439009666443,
                -0.37026265263557434,
                -0.09773323684930801
            ],
            "type" : "VEC3"
        },
        {
            "bufferView" : 1,
            "componentType" : 5126,
            "count" : 18240,
            "type" : "VEC3"
        },
        {
            "bufferView" : 2,
            "componentType" : 5123,
            "count" : 27360,
            "type" : "SCALAR"
        },
        {
            "bufferView" : 3,
            "componentType" : 5126,
            "count" : 6080,
            "max" : [
                0.17848485708236694,
                0.5680087208747864,
                0.07453993707895279
            ],
            "min" : [
                -0.15280480682849884,
                -0.3689972460269928,
                -0.09638561308383942
            ],
            "type" : "VEC3"
        },
        {
            "bufferView" : 4,
            "componentType" : 5126,
            "count" : 6080,
            "type" : "VEC3"
        },
        {
            "bufferView" : 5,
            "componentType" : 5123,
            "count" : 9120,
            "type" : "SCALAR"
        }
    ],
    "bufferViews" : [
        {
            "buffer" : 0,
            "byteLength" : 218880,
            "byteOffset" : 0
        },
        {
            "buffer" : 0,
            "byteLength" : 218880,
            "byteOffset" : 218880
        },
        {
            "buffer" : 0,
            "byteLength" : 54720,
            "byteOffset" : 437760
        },
        {
            "buffer" : 0,
            "byteLength" : 72960,
            "byteOffset" : 492480
        },
        {
            "buffer" : 0,
            "byteLength" : 72960,
            "byteOffset" : 565440
        },
        {
            "buffer" : 0,
            "byteLength" : 18240,
            "byteOffset" : 638400
        }
    ],
    "buffers" : [
        {
            "byteLength" : 656640,
            "uri" : "data:application/octet-stream;base64,"
        }
    ]
}
