{
    "asset" : {
        "generator" : "Khronos glTF Blender I/O v1.4.40",
        "version" : "2.0"
    },
    "scene" : 0,
    "scenes" : [
        {
            "name" : "Scene",
            "nodes" : [
                0
            ]
        }
    ],
    "nodes" : [
        {
            "mesh" : 0,
            "name" : "Plane.048"
        }
    ],
    "materials" : [
        {
            "doubleSided" : true,
            "name" : "Granite",
            "pbrMetallicRoughness" : {
                "baseColorFactor" : [
                    0.058699000626802444,
                    0.058699000626802444,
                    0.058699000626802444,
                    1
                ],
                "metallicFactor" : 0,
                "roughnessFactor" : 0.4816054105758667
            }
        }
    ],
    "meshes" : [
        {
            "name" : "Plane.051",
            "primitives" : [
                {
                    "attributes" : {
                        "POSITION" : 0,
                        "NORMAL" : 1,
                        "TEXCOORD_0" : 2
                    },
                    "indices" : 3,
                    "material" : 0
                }
            ]
        }
    ],
    "accessors" : [
        {
            "bufferView" : 0,
            "componentType" : 5126,
            "count" : 2066,
            "max" : [
                0.25,
                0.0794241651892662,
                0.3100000023841858
            ],
            "min" : [
                -0.25,
                -0.20655032992362976,
                -0.3100000023841858
            ],
            "type" : "VEC3"
        },
        {
            "bufferView" : 1,
            "componentType" : 5126,
            "count" : 2066,
            "type" : "VEC3"
        },
        {
            "bufferView" : 2,
            "componentType" : 5126,
            "count" : 2066,
            "type" : "VEC2"
        },
        {
            "bufferView" : 3,
            "componentType" : 5123,
            "count" : 3288,
            "type" : "SCALAR"
        }
    ],
    "bufferViews" : [
        {
            "buffer" : 0,
            "byteLength" : 24792,
            "byteOffset" : 0
        },
        {
            "buffer" : 0,
            "byteLength" : 24792,
            "byteOffset" : 24792
        },
        {
            "buffer" : 0,
            "byteLength" : 16528,
            "byteOffset" : 49584
        },
        {
            "buffer" : 0,
            "byteLength" : 6576,
            "byteOffset" : 66112
        }
    ],
    "buffers" : [
        {
            "byteLength" : 72688,
            "uri" : "data:application/octet-stream;base64,"
        }
    ]
}
