{
    "asset" : {
        "generator" : "Khronos glTF Blender I/O v1.4.40",
        "version" : "2.0"
    },
    "scene" : 0,
    "scenes" : [
        {
            "name" : "Scene",
            "nodes" : [
                0
            ]
        }
    ],
    "nodes" : [
        {
            "mesh" : 0,
            "name" : "Plane.005"
        }
    ],
    "materials" : [
        {
            "doubleSided" : true,
            "name" : "Chrome",
            "pbrMetallicRoughness" : {
                "baseColorFactor" : [
                    0.6146150231361389,
                    0.6146150231361389,
                    0.6146150231361389,
                    1
                ],
                "roughnessFactor" : 0.14545460045337677
            }
        },
        {
            "doubleSided" : true,
            "name" : "LDTD-White",
            "pbrMetallicRoughness" : {
                "baseColorFactor" : [
                    0.6146150231361389,
                    0.6146150231361389,
                    0.6146150231361389,
                    1
                ],
                "baseColorTexture" : {
                    "index" : 0,
                    "texCoord" : 1
                },
                "metallicFactor" : 0,
                "roughnessFactor" : 0.17391300201416016
            }
        }
    ],
    "meshes" : [
        {
            "name" : "Plane.699",
            "primitives" : [
                {
                    "attributes" : {
                        "POSITION" : 0,
                        "NORMAL" : 1,
                        "TEXCOORD_0" : 2
                    },
                    "indices" : 3,
                    "material" : 0
                },
                {
                    "attributes" : {
                        "POSITION" : 4,
                        "NORMAL" : 5,
                        "TEXCOORD_0" : 6
                    },
                    "indices" : 7,
                    "material" : 1
                }
            ]
        }
    ],
    "textures" : [
        {
            "sampler" : 0,
            "source" : 0
        }
    ],
    "images" : [
        {
            "bufferView" : 8,
            "mimeType" : "image/png",
            "name" : "Plane"
        }
    ],
    "accessors" : [
        {
            "bufferView" : 0,
            "componentType" : 5126,
            "count" : 2534,
            "max" : [
                0.6999971866607666,
                0.3542957305908203,
                0.4500008523464203
            ],
            "min" : [
                -0.6999967098236084,
                -0.3634033203125,
                -0.45000067353248596
            ],
            "type" : "VEC3"
        },
        {
            "bufferView" : 1,
            "componentType" : 5126,
            "count" : 2534,
            "type" : "VEC3"
        },
        {
            "bufferView" : 2,
            "componentType" : 5126,
            "count" : 2534,
            "type" : "VEC2"
        },
        {
            "bufferView" : 3,
            "componentType" : 5123,
            "count" : 3840,
            "type" : "SCALAR"
        },
        {
            "bufferView" : 4,
            "componentType" : 5126,
            "count" : 24,
            "max" : [
                0.7247164249420166,
                0.3742961883544922,
                0.4477024972438812
            ],
            "min" : [
                -0.7247159481048584,
                0.3542957305908203,
                -0.4477023184299469
            ],
            "type" : "VEC3"
        },
        {
            "bufferView" : 5,
            "componentType" : 5126,
            "count" : 24,
            "type" : "VEC3"
        },
        {
            "bufferView" : 6,
            "componentType" : 5126,
            "count" : 24,
            "type" : "VEC2"
        },
        {
            "bufferView" : 7,
            "componentType" : 5123,
            "count" : 36,
            "type" : "SCALAR"
        }
    ],
    "bufferViews" : [
        {
            "buffer" : 0,
            "byteLength" : 30408,
            "byteOffset" : 0
        },
        {
            "buffer" : 0,
            "byteLength" : 30408,
            "byteOffset" : 30408
        },
        {
            "buffer" : 0,
            "byteLength" : 20272,
            "byteOffset" : 60816
        },
        {
            "buffer" : 0,
            "byteLength" : 7680,
            "byteOffset" : 81088
        },
        {
            "buffer" : 0,
            "byteLength" : 288,
            "byteOffset" : 88768
        },
        {
            "buffer" : 0,
            "byteLength" : 288,
            "byteOffset" : 89056
        },
        {
            "buffer" : 0,
            "byteLength" : 192,
            "byteOffset" : 89344
        },
        {
            "buffer" : 0,
            "byteLength" : 72,
            "byteOffset" : 89536
        },
        {
            "buffer" : 0,
            "byteLength" : 55746,
            "byteOffset" : 89608
        }
    ],
    "samplers" : [
        {
            "magFilter" : 9729,
            "minFilter" : 9986
        }
    ],
    "buffers" : [
        {
            "byteLength" : 145356,
            "uri" : "data:application/octet-stream;base64,"
        }
    ]
}
