{
    "asset" : {
        "generator" : "Khronos glTF Blender I/O v1.4.40",
        "version" : "2.0"
    },
    "scene" : 0,
    "scenes" : [
        {
            "name" : "Scene",
            "nodes" : [
                0
            ]
        }
    ],
    "nodes" : [
        {
            "mesh" : 0,
            "name" : "Skrinka-Kuchyn-60.016",
            "rotation" : [
                0,
                1,
                0,
                -1.6292068494294654e-07
            ]
        }
    ],
    "materials" : [
        {
            "doubleSided" : true,
            "name" : "LDTD-Glossy-Black.019",
            "pbrMetallicRoughness" : {
                "baseColorFactor" : [
                    0.04045586287975311,
                    0.03763292357325554,
                    0.040126603096723557,
                    1
                ],
                "baseColorTexture" : {
                    "index" : 0,
                    "texCoord" : 1
                },
                "metallicFactor" : 0,
                "roughnessFactor" : 0.0020000000949949026
            }
        }
    ],
    "meshes" : [
        {
            "name" : "Plane.027",
            "primitives" : [
                {
                    "attributes" : {
                        "POSITION" : 0,
                        "NORMAL" : 1,
                        "TEXCOORD_0" : 2
                    },
                    "indices" : 3,
                    "material" : 0
                }
            ]
        }
    ],
    "textures" : [
        {
            "sampler" : 0,
            "source" : 0
        }
    ],
    "images" : [
        {
            "bufferView" : 4,
            "mimeType" : "image/png",
            "name" : "Skrinka-Kuchyn-60"
        }
    ],
    "accessors" : [
        {
            "bufferView" : 0,
            "componentType" : 5126,
            "count" : 6262,
            "max" : [
                0.3035149872303009,
                0.6694425940513611,
                0.3006391227245331
            ],
            "min" : [
                -0.2964852750301361,
                -0.22056059539318085,
                -0.2993610203266144
            ],
            "type" : "VEC3"
        },
        {
            "bufferView" : 1,
            "componentType" : 5126,
            "count" : 6262,
            "type" : "VEC3"
        },
        {
            "bufferView" : 2,
            "componentType" : 5126,
            "count" : 6262,
            "type" : "VEC2"
        },
        {
            "bufferView" : 3,
            "componentType" : 5123,
            "count" : 9480,
            "type" : "SCALAR"
        }
    ],
    "bufferViews" : [
        {
            "buffer" : 0,
            "byteLength" : 75144,
            "byteOffset" : 0
        },
        {
            "buffer" : 0,
            "byteLength" : 75144,
            "byteOffset" : 75144
        },
        {
            "buffer" : 0,
            "byteLength" : 50096,
            "byteOffset" : 150288
        },
        {
            "buffer" : 0,
            "byteLength" : 18960,
            "byteOffset" : 200384
        },
        {
            "buffer" : 0,
            "byteLength" : 14558,
            "byteOffset" : 219344
        }
    ],
    "samplers" : [
        {
            "magFilter" : 9729,
            "minFilter" : 9986
        }
    ],
    "buffers" : [
        {
            "byteLength" : 233904,
            "uri" : "data:application/octet-stream;base64,"
        }
    ]
}
