{
    "asset" : {
        "generator" : "Khronos glTF Blender I/O v1.4.40",
        "version" : "2.0"
    },
    "scene" : 0,
    "scenes" : [
        {
            "name" : "Scene",
            "nodes" : [
                0
            ]
        }
    ],
    "nodes" : [
        {
            "mesh" : 0,
            "name" : "Skrinka-Kuchyn-60.020"
        }
    ],
    "materials" : [
        {
            "doubleSided" : true,
            "name" : "LDTD-Glossy-Black.022",
            "pbrMetallicRoughness" : {
                "baseColorFactor" : [
                    0.04045586287975311,
                    0.03763292357325554,
                    0.040126603096723557,
                    1
                ],
                "baseColorTexture" : {
                    "index" : 0,
                    "texCoord" : 1
                },
                "metallicFactor" : 0,
                "roughnessFactor" : 0.0020000000949949026
            }
        }
    ],
    "meshes" : [
        {
            "name" : "Plane.040",
            "primitives" : [
                {
                    "attributes" : {
                        "POSITION" : 0,
                        "NORMAL" : 1,
                        "TEXCOORD_0" : 2
                    },
                    "indices" : 3,
                    "material" : 0
                }
            ]
        }
    ],
    "textures" : [
        {
            "sampler" : 0,
            "source" : 0
        }
    ],
    "images" : [
        {
            "bufferView" : 4,
            "mimeType" : "image/png",
            "name" : "Skrinka-Kuchyn-60"
        }
    ],
    "accessors" : [
        {
            "bufferView" : 0,
            "componentType" : 5126,
            "count" : 7018,
            "max" : [
                0.26568326354026794,
                1.8977088928222656,
                0.29942944645881653
            ],
            "min" : [
                -0.3343168795108795,
                -0.6589488983154297,
                -0.3005708158016205
            ],
            "type" : "VEC3"
        },
        {
            "bufferView" : 1,
            "componentType" : 5126,
            "count" : 7018,
            "type" : "VEC3"
        },
        {
            "bufferView" : 2,
            "componentType" : 5126,
            "count" : 7018,
            "type" : "VEC2"
        },
        {
            "bufferView" : 3,
            "componentType" : 5123,
            "count" : 10608,
            "type" : "SCALAR"
        }
    ],
    "bufferViews" : [
        {
            "buffer" : 0,
            "byteLength" : 84216,
            "byteOffset" : 0
        },
        {
            "buffer" : 0,
            "byteLength" : 84216,
            "byteOffset" : 84216
        },
        {
            "buffer" : 0,
            "byteLength" : 56144,
            "byteOffset" : 168432
        },
        {
            "buffer" : 0,
            "byteLength" : 21216,
            "byteOffset" : 224576
        },
        {
            "buffer" : 0,
            "byteLength" : 21959,
            "byteOffset" : 245792
        }
    ],
    "samplers" : [
        {
            "magFilter" : 9729,
            "minFilter" : 9986
        }
    ],
    "buffers" : [
        {
            "byteLength" : 267752,
            "uri" : "data:application/octet-stream;base64,"
        }
    ]
}
