{
    "asset" : {
        "generator" : "Khronos glTF Blender I/O v1.4.40",
        "version" : "2.0"
    },
    "scene" : 0,
    "scenes" : [
        {
            "name" : "Scene",
            "nodes" : [
                0
            ]
        }
    ],
    "nodes" : [
        {
            "mesh" : 0,
            "name" : "Skrinka-Kuchyn-60.015"
        }
    ],
    "materials" : [
        {
            "doubleSided" : true,
            "name" : "LDTD-Glossy-Black.018",
            "pbrMetallicRoughness" : {
                "baseColorFactor" : [
                    0.04045586287975311,
                    0.03763292357325554,
                    0.040126603096723557,
                    1
                ],
                "baseColorTexture" : {
                    "index" : 0,
                    "texCoord" : 1
                },
                "metallicFactor" : 0,
                "roughnessFactor" : 0.0020000000949949026
            }
        }
    ],
    "meshes" : [
        {
            "name" : "Plane.026",
            "primitives" : [
                {
                    "attributes" : {
                        "POSITION" : 0,
                        "NORMAL" : 1,
                        "TEXCOORD_0" : 2
                    },
                    "indices" : 3,
                    "material" : 0
                }
            ]
        }
    ],
    "textures" : [
        {
            "sampler" : 0,
            "source" : 0
        }
    ],
    "images" : [
        {
            "bufferView" : 4,
            "mimeType" : "image/png",
            "name" : "Skrinka-Kuchyn-60"
        }
    ],
    "accessors" : [
        {
            "bufferView" : 0,
            "componentType" : 5126,
            "count" : 6210,
            "max" : [
                0.3035149574279785,
                0.6694424152374268,
                0.30063924193382263
            ],
            "min" : [
                -0.2964853048324585,
                -0.22056080400943756,
                -0.29936090111732483
            ],
            "type" : "VEC3"
        },
        {
            "bufferView" : 1,
            "componentType" : 5126,
            "count" : 6210,
            "type" : "VEC3"
        },
        {
            "bufferView" : 2,
            "componentType" : 5126,
            "count" : 6210,
            "type" : "VEC2"
        },
        {
            "bufferView" : 3,
            "componentType" : 5123,
            "count" : 9480,
            "type" : "SCALAR"
        }
    ],
    "bufferViews" : [
        {
            "buffer" : 0,
            "byteLength" : 74520,
            "byteOffset" : 0
        },
        {
            "buffer" : 0,
            "byteLength" : 74520,
            "byteOffset" : 74520
        },
        {
            "buffer" : 0,
            "byteLength" : 49680,
            "byteOffset" : 149040
        },
        {
            "buffer" : 0,
            "byteLength" : 18960,
            "byteOffset" : 198720
        },
        {
            "buffer" : 0,
            "byteLength" : 13480,
            "byteOffset" : 217680
        }
    ],
    "samplers" : [
        {
            "magFilter" : 9729,
            "minFilter" : 9986
        }
    ],
    "buffers" : [
        {
            "byteLength" : 231160,
            "uri" : "data:application/octet-stream;base64,"
        }
    ]
}
