{
    "asset" : {
        "generator" : "Khronos glTF Blender I/O v1.4.40",
        "version" : "2.0"
    },
    "scene" : 0,
    "scenes" : [
        {
            "name" : "Scene",
            "nodes" : [
                0
            ]
        }
    ],
    "nodes" : [
        {
            "mesh" : 0,
            "name" : "Table",
            "scale" : [
                0.009999999776482582,
                0.009999999776482582,
                0.009999999776482582
            ]
        }
    ],
    "materials" : [
        {
            "doubleSided" : true,
            "name" : "wood.chair",
            "pbrMetallicRoughness" : {
                "baseColorFactor" : [
                    0.2158605009317398,
                    0.2158605009317398,
                    0.2158605009317398,
                    1
                ],
                "baseColorTexture" : {
                    "index" : 0,
                    "texCoord" : 1
                },
                "metallicFactor" : 0,
                "roughnessFactor" : 0.5527864098548889
            }
        }
    ],
    "meshes" : [
        {
            "name" : "Table",
            "primitives" : [
                {
                    "attributes" : {
                        "POSITION" : 0,
                        "NORMAL" : 1,
                        "TEXCOORD_0" : 2,
                        "TEXCOORD_1" : 3
                    },
                    "indices" : 4,
                    "material" : 0
                }
            ]
        }
    ],
    "textures" : [
        {
            "sampler" : 0,
            "source" : 0
        }
    ],
    "images" : [
        {
            "bufferView" : 5,
            "mimeType" : "image/png",
            "name" : "Table_baked"
        }
    ],
    "accessors" : [
        {
            "bufferView" : 0,
            "componentType" : 5126,
            "count" : 1833,
            "max" : [
                39.6622314453125,
                12.583291053771973,
                87.51630401611328
            ],
            "min" : [
                -40.354549407958984,
                -59.416717529296875,
                -86.32530212402344
            ],
            "type" : "VEC3"
        },
        {
            "bufferView" : 1,
            "componentType" : 5126,
            "count" : 1833,
            "type" : "VEC3"
        },
        {
            "bufferView" : 2,
            "componentType" : 5126,
            "count" : 1833,
            "type" : "VEC2"
        },
        {
            "bufferView" : 3,
            "componentType" : 5126,
            "count" : 1833,
            "type" : "VEC2"
        },
        {
            "bufferView" : 4,
            "componentType" : 5123,
            "count" : 4950,
            "type" : "SCALAR"
        }
    ],
    "bufferViews" : [
        {
            "buffer" : 0,
            "byteLength" : 21996,
            "byteOffset" : 0
        },
        {
            "buffer" : 0,
            "byteLength" : 21996,
            "byteOffset" : 21996
        },
        {
            "buffer" : 0,
            "byteLength" : 14664,
            "byteOffset" : 43992
        },
        {
            "buffer" : 0,
            "byteLength" : 14664,
            "byteOffset" : 58656
        },
        {
            "buffer" : 0,
            "byteLength" : 9900,
            "byteOffset" : 73320
        },
        {
            "buffer" : 0,
            "byteLength" : 71770,
            "byteOffset" : 83220
        }
    ],
    "samplers" : [
        {
            "magFilter" : 9729,
            "minFilter" : 9986
        }
    ],
    "buffers" : [
        {
            "byteLength" : 154992,
            "uri" : "data:application/octet-stream;base64,"
        }
    ]
}
