{
    "asset" : {
        "generator" : "Khronos glTF Blender I/O v1.4.40",
        "version" : "2.0"
    },
    "scene" : 0,
    "scenes" : [
        {
            "name" : "Scene",
            "nodes" : [
                0
            ]
        }
    ],
    "nodes" : [
        {
            "mesh" : 0,
            "name" : "TV",
            "scale" : [
                0.09055877476930618,
                0.09055877476930618,
                0.4115387797355652
            ]
        }
    ],
    "materials" : [
        {
            "doubleSided" : true,
            "name" : "Aluminium",
            "pbrMetallicRoughness" : {
                "baseColorFactor" : [
                    0.06680663675069809,
                    0.06680663675069809,
                    0.06680663675069809,
                    1
                ],
                "metallicFactor" : 0,
                "roughnessFactor" : 0.2310924232006073
            }
        },
        {
            "doubleSided" : true,
            "name" : "Film",
            "pbrMetallicRoughness" : {
                "baseColorFactor" : [
                    0,
                    0,
                    0,
                    1
                ],
                "metallicFactor" : 0,
                "roughnessFactor" : 0
            }
        }
    ],
    "meshes" : [
        {
            "name" : "Cube.026",
            "primitives" : [
                {
                    "attributes" : {
                        "POSITION" : 0,
                        "NORMAL" : 1,
                        "TEXCOORD_0" : 2
                    },
                    "indices" : 3,
                    "material" : 0
                },
                {
                    "attributes" : {
                        "POSITION" : 4,
                        "NORMAL" : 5,
                        "TEXCOORD_0" : 6
                    },
                    "indices" : 7,
                    "material" : 1
                }
            ]
        }
    ],
    "accessors" : [
        {
            "bufferView" : 0,
            "componentType" : 5126,
            "count" : 166,
            "max" : [
                1.058505892753601,
                5.442581653594971,
                1.1461819410324097
            ],
            "min" : [
                -0.9414941072463989,
                -1.4842067956924438,
                -1.1523696184158325
            ],
            "type" : "VEC3"
        },
        {
            "bufferView" : 1,
            "componentType" : 5126,
            "count" : 166,
            "type" : "VEC3"
        },
        {
            "bufferView" : 2,
            "componentType" : 5126,
            "count" : 166,
            "type" : "VEC2"
        },
        {
            "bufferView" : 3,
            "componentType" : 5123,
            "count" : 420,
            "type" : "SCALAR"
        },
        {
            "bufferView" : 4,
            "componentType" : 5126,
            "count" : 4,
            "max" : [
                -0.16651448607444763,
                5.35266637802124,
                1.113466501235962
            ],
            "min" : [
                -0.16651448607444763,
                -0.7848539352416992,
                -1.1196541786193848
            ],
            "type" : "VEC3"
        },
        {
            "bufferView" : 5,
            "componentType" : 5126,
            "count" : 4,
            "type" : "VEC3"
        },
        {
            "bufferView" : 6,
            "componentType" : 5126,
            "count" : 4,
            "type" : "VEC2"
        },
        {
            "bufferView" : 7,
            "componentType" : 5123,
            "count" : 6,
            "type" : "SCALAR"
        }
    ],
    "bufferViews" : [
        {
            "buffer" : 0,
            "byteLength" : 1992,
            "byteOffset" : 0
        },
        {
            "buffer" : 0,
            "byteLength" : 1992,
            "byteOffset" : 1992
        },
        {
            "buffer" : 0,
            "byteLength" : 1328,
            "byteOffset" : 3984
        },
        {
            "buffer" : 0,
            "byteLength" : 840,
            "byteOffset" : 5312
        },
        {
            "buffer" : 0,
            "byteLength" : 48,
            "byteOffset" : 6152
        },
        {
            "buffer" : 0,
            "byteLength" : 48,
            "byteOffset" : 6200
        },
        {
            "buffer" : 0,
            "byteLength" : 32,
            "byteOffset" : 6248
        },
        {
            "buffer" : 0,
            "byteLength" : 12,
            "byteOffset" : 6280
        }
    ],
    "buffers" : [
        {
            "byteLength" : 6292,
            "uri" : "data:application/octet-stream;base64,"
        }
    ]
}
