{
    "asset" : {
        "generator" : "Khronos glTF Blender I/O v1.4.40",
        "version" : "2.0"
    },
    "scene" : 0,
    "scenes" : [
        {
            "name" : "Scene",
            "nodes" : [
                0
            ]
        }
    ],
    "nodes" : [
        {
            "mesh" : 0,
            "name" : "WallSelectBMarker",
            "scale" : [
                0.02375321090221405,
                0.36725494265556335,
                0.02375321090221405
            ]
        }
    ],
    "materials" : [
        {
            "doubleSided" : true,
            "emissiveFactor" : [
                0.9604257345199585,
                1,
                0
            ],
            "name" : "Selector",
            "pbrMetallicRoughness" : {}
        }
    ],
    "meshes" : [
        {
            "name" : "Cube.058",
            "primitives" : [
                {
                    "attributes" : {
                        "POSITION" : 0,
                        "NORMAL" : 1,
                        "TEXCOORD_0" : 2
                    },
                    "indices" : 3,
                    "material" : 0
                }
            ]
        }
    ],
    "accessors" : [
        {
            "bufferView" : 0,
            "componentType" : 5126,
            "count" : 3264,
            "max" : [
                8.163285255432129,
                0.9828677773475647,
                0.9999925494194031
            ],
            "min" : [
                -12.079916954040527,
                -1.01713228225708,
                -1.0000075101852417
            ],
            "type" : "VEC3"
        },
        {
            "bufferView" : 1,
            "componentType" : 5126,
            "count" : 3264,
            "type" : "VEC3"
        },
        {
            "bufferView" : 2,
            "componentType" : 5126,
            "count" : 3264,
            "type" : "VEC2"
        },
        {
            "bufferView" : 3,
            "componentType" : 5123,
            "count" : 4980,
            "type" : "SCALAR"
        }
    ],
    "bufferViews" : [
        {
            "buffer" : 0,
            "byteLength" : 39168,
            "byteOffset" : 0
        },
        {
            "buffer" : 0,
            "byteLength" : 39168,
            "byteOffset" : 39168
        },
        {
            "buffer" : 0,
            "byteLength" : 26112,
            "byteOffset" : 78336
        },
        {
            "buffer" : 0,
            "byteLength" : 9960,
            "byteOffset" : 104448
        }
    ],
    "buffers" : [
        {
            "byteLength" : 114408,
            "uri" : "data:application/octet-stream;base64,"
        }
    ]
}
